<?xml version="1.0" encoding="us-ascii" standalone="no"?><svg xmlns="http://www.w3.org/2000/svg" xmlns:xlink="http://www.w3.org/1999/xlink" contentStyleType="text/css" height="2360px" preserveAspectRatio="none" style="width:4399px;height:2360px;background:#FFFFFF;" version="1.1" viewBox="0 0 4399 2360" width="4399px" zoomAndPan="magnify"><defs/><g><!--cluster Backend--><g id="cluster_Backend"><path d="M8.5,6.0137 L70.5,6.0137 A3.75,3.75 0 0 1 73,8.5137 L80,30.6348 L4389.5,30.6348 A2.5,2.5 0 0 1 4392,33.1348 L4392,1871.5137 A2.5,2.5 0 0 1 4389.5,1874.0137 L8.5,1874.0137 A2.5,2.5 0 0 1 6,1871.5137 L6,8.5137 A2.5,2.5 0 0 1 8.5,6.0137 " fill="none" style="stroke:#000000;stroke-width:1.5;"/><line style="stroke:#000000;stroke-width:1.5;" x1="6" x2="80" y1="30.6348" y2="30.6348"/><text fill="#000000" font-family="sans-serif" font-size="14" font-weight="bold" lengthAdjust="spacing" textLength="61" x="10" y="23.1211">Backend</text></g><!--cluster ObjectMappingTemplateModule--><g id="cluster_ObjectMappingTemplateModule"><path d="M427.5,1074.0137 L652.5,1074.0137 A3.75,3.75 0 0 1 655,1076.5137 L662,1098.6348 L4365.5,1098.6348 A2.5,2.5 0 0 1 4368,1101.1348 L4368,1847.5137 A2.5,2.5 0 0 1 4365.5,1850.0137 L427.5,1850.0137 A2.5,2.5 0 0 1 425,1847.5137 L425,1076.5137 A2.5,2.5 0 0 1 427.5,1074.0137 " fill="none" style="stroke:#000000;stroke-width:1.5;"/><line style="stroke:#000000;stroke-width:1.5;" x1="425" x2="662" y1="1098.6348" y2="1098.6348"/><text fill="#000000" font-family="sans-serif" font-size="14" font-weight="bold" lengthAdjust="spacing" textLength="224" x="429" y="1091.1211">ObjectMappingTemplateModule</text></g><!--cluster TemplateModel--><g id="cluster_TemplateModel"><path d="M451.5,1119.0137 L560.5,1119.0137 A3.75,3.75 0 0 1 563,1121.5137 L570,1143.6348 L1222.5,1143.6348 A2.5,2.5 0 0 1 1225,1146.1348 L1225,1823.5137 A2.5,2.5 0 0 1 1222.5,1826.0137 L451.5,1826.0137 A2.5,2.5 0 0 1 449,1823.5137 L449,1121.5137 A2.5,2.5 0 0 1 451.5,1119.0137 " fill="none" style="stroke:#000000;stroke-width:1.5;"/><line style="stroke:#000000;stroke-width:1.5;" x1="449" x2="570" y1="1143.6348" y2="1143.6348"/><text fill="#000000" font-family="sans-serif" font-size="14" font-weight="bold" lengthAdjust="spacing" textLength="108" x="453" y="1136.1211">TemplateModel</text></g><!--cluster ObjectMappingLayoutModule--><g id="cluster_ObjectMappingLayoutModule"><path d="M32.5,51.0137 L239.5,51.0137 A3.75,3.75 0 0 1 242,53.5137 L249,75.6348 L4365.5,75.6348 A2.5,2.5 0 0 1 4368,78.1348 L4368,973.5137 A2.5,2.5 0 0 1 4365.5,976.0137 L32.5,976.0137 A2.5,2.5 0 0 1 30,973.5137 L30,53.5137 A2.5,2.5 0 0 1 32.5,51.0137 " fill="none" style="stroke:#000000;stroke-width:1.5;"/><line style="stroke:#000000;stroke-width:1.5;" x1="30" x2="249" y1="75.6348" y2="75.6348"/><text fill="#000000" font-family="sans-serif" font-size="14" font-weight="bold" lengthAdjust="spacing" textLength="206" x="34" y="68.1211">ObjectMappingLayoutModule</text></g><!--cluster LayoutModel--><g id="cluster_LayoutModel"><path d="M3432.5,96.0137 L3523.5,96.0137 A3.75,3.75 0 0 1 3526,98.5137 L3533,120.6348 L4341.5,120.6348 A2.5,2.5 0 0 1 4344,123.1348 L4344,949.5137 A2.5,2.5 0 0 1 4341.5,952.0137 L3432.5,952.0137 A2.5,2.5 0 0 1 3430,949.5137 L3430,98.5137 A2.5,2.5 0 0 1 3432.5,96.0137 " fill="none" style="stroke:#000000;stroke-width:1.5;"/><line style="stroke:#000000;stroke-width:1.5;" x1="3430" x2="3533" y1="120.6348" y2="120.6348"/><text fill="#000000" font-family="sans-serif" font-size="14" font-weight="bold" lengthAdjust="spacing" textLength="90" x="3434" y="113.1211">LayoutModel</text></g><!--cluster Database--><g id="cluster_Database"><path d="M3052,1925.0137 C3052,1915.0137 3419.5,1915.0137 3419.5,1915.0137 C3419.5,1915.0137 3787,1915.0137 3787,1925.0137 L3787,2333.0137 C3787,2343.0137 3419.5,2343.0137 3419.5,2343.0137 C3419.5,2343.0137 3052,2343.0137 3052,2333.0137 L3052,1925.0137 " fill="none" style="stroke:#181818;stroke-width:1.0;"/><path d="M3052,1925.0137 C3052,1935.0137 3419.5,1935.0137 3419.5,1935.0137 C3419.5,1935.0137 3787,1935.0137 3787,1925.0137 " fill="none" style="stroke:#181818;stroke-width:1.0;"/><text fill="#000000" font-family="sans-serif" font-size="14" font-weight="bold" lengthAdjust="spacing" textLength="65" x="3387" y="1952.1211">Database</text></g><!--class ObjectMappingTemplateService--><g id="elem_ObjectMappingTemplateService"><rect codeLine="3" fill="#F1F1F1" height="85.2422" id="ObjectMappingTemplateService" rx="2.5" ry="2.5" style="stroke:#181818;stroke-width:0.5;" width="554" x="2783" y="1468.5137"/><ellipse cx="2955.25" cy="1484.5137" fill="#B4A7E5" rx="11" ry="11" style="stroke:#181818;stroke-width:1.0;"/><path d="M2956.2031,1481.1543 L2956.2031,1487.8105 L2957.9219,1487.8105 Q2958.5313,1487.8105 2958.7969,1488.0449 Q2959.0625,1488.2793 2959.0625,1488.6699 Q2959.0625,1489.0449 2958.7969,1489.2793 Q2958.5313,1489.5137 2957.9219,1489.5137 L2952.7813,1489.5137 Q2952.1719,1489.5137 2951.9063,1489.2793 Q2951.6406,1489.0449 2951.6406,1488.6543 Q2951.6406,1488.2793 2951.9063,1488.0449 Q2952.1719,1487.8105 2952.7813,1487.8105 L2954.5,1487.8105 L2954.5,1481.1543 L2952.7813,1481.1543 Q2952.1719,1481.1543 2951.9063,1480.9199 Q2951.6406,1480.6855 2951.6406,1480.2949 Q2951.6406,1479.9199 2951.9063,1479.6855 Q2952.1719,1479.4512 2952.7813,1479.4512 L2957.9219,1479.4512 Q2958.5313,1479.4512 2958.7969,1479.6855 Q2959.0625,1479.9199 2959.0625,1480.2949 Q2959.0625,1480.6855 2958.7969,1480.9199 Q2958.5313,1481.1543 2957.9219,1481.1543 L2956.2031,1481.1543 Z " fill="#000000"/><text fill="#000000" font-family="sans-serif" font-size="14" font-style="italic" lengthAdjust="spacing" textLength="201" x="2975.75" y="1490.3105">ObjectMappingTemplateService</text><line style="stroke:#181818;stroke-width:0.5;" x1="2784" x2="3336" y1="1500.5137" y2="1500.5137"/><line style="stroke:#181818;stroke-width:0.5;" x1="2784" x2="3336" y1="1508.5137" y2="1508.5137"/><ellipse cx="2794" cy="1523.3242" fill="#84BE84" rx="3" ry="3" style="stroke:#038048;stroke-width:1.0;"/><text fill="#000000" font-family="sans-serif" font-size="14" lengthAdjust="spacing" textLength="528" x="2803" y="1527.6211">Id upsertObjectMappingTemplate(ObjectMappingTemplate objectMappingTemplate)</text><ellipse cx="2794" cy="1541.9453" fill="#84BE84" rx="3" ry="3" style="stroke:#038048;stroke-width:1.0;"/><text fill="#000000" font-family="sans-serif" font-size="14" lengthAdjust="spacing" textLength="313" x="2803" y="1546.2422">void deleteObjectMappingTemplate(Id templateId)</text></g><!--class ObjectMappingTemplateServiceImpl--><g id="elem_ObjectMappingTemplateServiceImpl"><rect codeLine="7" fill="#F1F1F1" height="85.2422" id="ObjectMappingTemplateServiceImpl" rx="2.5" ry="2.5" style="stroke:#181818;stroke-width:0.5;" width="554" x="3798" y="1230.5137"/><ellipse cx="3957.75" cy="1246.5137" fill="#ADD1B2" rx="11" ry="11" style="stroke:#181818;stroke-width:1.0;"/><path d="M3960.5156,1242.3887 Q3960.6719,1242.1699 3960.8594,1242.0605 Q3961.0469,1241.9512 3961.2656,1241.9512 Q3961.6406,1241.9512 3961.875,1242.2168 Q3962.1094,1242.4668 3962.1094,1243.0762 L3962.1094,1244.5293 Q3962.1094,1245.1387 3961.875,1245.4043 Q3961.6406,1245.6699 3961.2656,1245.6699 Q3960.9219,1245.6699 3960.7188,1245.4668 Q3960.5156,1245.2793 3960.4063,1244.7637 Q3960.3594,1244.4043 3960.1719,1244.2168 Q3959.8438,1243.8418 3959.2344,1243.623 Q3958.625,1243.4043 3958,1243.4043 Q3957.2344,1243.4043 3956.5938,1243.7324 Q3955.9688,1244.0605 3955.4688,1244.8105 Q3954.9844,1245.5605 3954.9844,1246.5918 L3954.9844,1247.6855 Q3954.9844,1248.9199 3955.875,1249.748 Q3956.7656,1250.5605 3958.3594,1250.5605 Q3959.2969,1250.5605 3959.9531,1250.3105 Q3960.3438,1250.1543 3960.7656,1249.7168 Q3961.0313,1249.4512 3961.1719,1249.373 Q3961.3281,1249.2949 3961.5313,1249.2949 Q3961.8594,1249.2949 3962.1094,1249.5605 Q3962.375,1249.8105 3962.375,1250.1543 Q3962.375,1250.498 3962.0313,1250.9043 Q3961.5313,1251.4824 3960.7344,1251.8105 Q3959.6563,1252.2637 3958.3594,1252.2637 Q3956.8438,1252.2637 3955.6406,1251.6387 Q3954.6563,1251.1387 3953.9688,1250.0762 Q3953.2813,1248.998 3953.2813,1247.7168 L3953.2813,1246.5605 Q3953.2813,1245.2324 3953.8906,1244.0918 Q3954.5156,1242.9355 3955.6094,1242.3262 Q3956.7031,1241.7012 3957.9375,1241.7012 Q3958.6719,1241.7012 3959.3125,1241.873 Q3959.9688,1242.0293 3960.5156,1242.3887 Z " fill="#000000"/><text fill="#000000" font-family="sans-serif" font-size="14" lengthAdjust="spacing" textLength="226" x="3978.25" y="1252.3105">ObjectMappingTemplateServiceImpl</text><line style="stroke:#181818;stroke-width:0.5;" x1="3799" x2="4351" y1="1262.5137" y2="1262.5137"/><line style="stroke:#181818;stroke-width:0.5;" x1="3799" x2="4351" y1="1270.5137" y2="1270.5137"/><ellipse cx="3809" cy="1285.3242" fill="#84BE84" rx="3" ry="3" style="stroke:#038048;stroke-width:1.0;"/><text fill="#000000" font-family="sans-serif" font-size="14" lengthAdjust="spacing" textLength="528" x="3818" y="1289.6211">Id upsertObjectMappingTemplate(ObjectMappingTemplate objectMappingTemplate)</text><ellipse cx="3809" cy="1303.9453" fill="#84BE84" rx="3" ry="3" style="stroke:#038048;stroke-width:1.0;"/><text fill="#000000" font-family="sans-serif" font-size="14" lengthAdjust="spacing" textLength="313" x="3818" y="1308.2422">void deleteObjectMappingTemplate(Id templateId)</text></g><!--class ObjectMappingTemplatesSelector--><g id="elem_ObjectMappingTemplatesSelector"><rect codeLine="12" fill="#F1F1F1" height="85.2422" id="ObjectMappingTemplatesSelector" rx="2.5" ry="2.5" style="stroke:#181818;stroke-width:0.5;" width="872" x="1279" y="1468.5137"/><ellipse cx="1604.25" cy="1484.5137" fill="#ADD1B2" rx="11" ry="11" style="stroke:#181818;stroke-width:1.0;"/><path d="M1607.0156,1480.3887 Q1607.1719,1480.1699 1607.3594,1480.0605 Q1607.5469,1479.9512 1607.7656,1479.9512 Q1608.1406,1479.9512 1608.375,1480.2168 Q1608.6094,1480.4668 1608.6094,1481.0762 L1608.6094,1482.5293 Q1608.6094,1483.1387 1608.375,1483.4043 Q1608.1406,1483.6699 1607.7656,1483.6699 Q1607.4219,1483.6699 1607.2188,1483.4668 Q1607.0156,1483.2793 1606.9063,1482.7637 Q1606.8594,1482.4043 1606.6719,1482.2168 Q1606.3438,1481.8418 1605.7344,1481.623 Q1605.125,1481.4043 1604.5,1481.4043 Q1603.7344,1481.4043 1603.0938,1481.7324 Q1602.4688,1482.0605 1601.9688,1482.8105 Q1601.4844,1483.5605 1601.4844,1484.5918 L1601.4844,1485.6855 Q1601.4844,1486.9199 1602.375,1487.748 Q1603.2656,1488.5605 1604.8594,1488.5605 Q1605.7969,1488.5605 1606.4531,1488.3105 Q1606.8438,1488.1543 1607.2656,1487.7168 Q1607.5313,1487.4512 1607.6719,1487.373 Q1607.8281,1487.2949 1608.0313,1487.2949 Q1608.3594,1487.2949 1608.6094,1487.5605 Q1608.875,1487.8105 1608.875,1488.1543 Q1608.875,1488.498 1608.5313,1488.9043 Q1608.0313,1489.4824 1607.2344,1489.8105 Q1606.1563,1490.2637 1604.8594,1490.2637 Q1603.3438,1490.2637 1602.1406,1489.6387 Q1601.1563,1489.1387 1600.4688,1488.0762 Q1599.7813,1486.998 1599.7813,1485.7168 L1599.7813,1484.5605 Q1599.7813,1483.2324 1600.3906,1482.0918 Q1601.0156,1480.9355 1602.1094,1480.3262 Q1603.2031,1479.7012 1604.4375,1479.7012 Q1605.1719,1479.7012 1605.8125,1479.873 Q1606.4688,1480.0293 1607.0156,1480.3887 Z " fill="#000000"/><text fill="#000000" font-family="sans-serif" font-size="14" lengthAdjust="spacing" textLength="213" x="1624.75" y="1490.3105">ObjectMappingTemplatesSelector</text><line style="stroke:#181818;stroke-width:0.5;" x1="1280" x2="2150" y1="1500.5137" y2="1500.5137"/><line style="stroke:#181818;stroke-width:0.5;" x1="1280" x2="2150" y1="1508.5137" y2="1508.5137"/><ellipse cx="1290" cy="1523.3242" fill="#84BE84" rx="3" ry="3" style="stroke:#038048;stroke-width:1.0;"/><text fill="#000000" font-family="sans-serif" font-size="14" lengthAdjust="spacing" textLength="511" x="1299" y="1527.6211">List&lt;ObjectMappingTemplate&gt; getObjectMappingTemplates(Set&lt;Id&gt; templateIds)</text><ellipse cx="1290" cy="1541.9453" fill="#84BE84" rx="3" ry="3" style="stroke:#038048;stroke-width:1.0;"/><text fill="#000000" font-family="sans-serif" font-size="14" lengthAdjust="spacing" textLength="846" x="1299" y="1546.2422">List&lt;Object_Mapping_Template__c&gt; getMappingTemplates(List&lt;String&gt; sourceObjectApiNames, List&lt;String&gt; targetObjectsApiNames)</text></g><!--class ObjectMappingTemplateController--><g id="elem_ObjectMappingTemplateController"><rect codeLine="18" fill="#F1F1F1" height="159.7266" id="ObjectMappingTemplateController" rx="2.5" ry="2.5" style="stroke:#181818;stroke-width:0.5;" width="942" x="1244" y="1193.0137"/><ellipse cx="1602.75" cy="1209.0137" fill="#ADD1B2" rx="11" ry="11" style="stroke:#181818;stroke-width:1.0;"/><path d="M1605.5156,1204.8887 Q1605.6719,1204.6699 1605.8594,1204.5605 Q1606.0469,1204.4512 1606.2656,1204.4512 Q1606.6406,1204.4512 1606.875,1204.7168 Q1607.1094,1204.9668 1607.1094,1205.5762 L1607.1094,1207.0293 Q1607.1094,1207.6387 1606.875,1207.9043 Q1606.6406,1208.1699 1606.2656,1208.1699 Q1605.9219,1208.1699 1605.7188,1207.9668 Q1605.5156,1207.7793 1605.4063,1207.2637 Q1605.3594,1206.9043 1605.1719,1206.7168 Q1604.8438,1206.3418 1604.2344,1206.123 Q1603.625,1205.9043 1603,1205.9043 Q1602.2344,1205.9043 1601.5938,1206.2324 Q1600.9688,1206.5605 1600.4688,1207.3105 Q1599.9844,1208.0605 1599.9844,1209.0918 L1599.9844,1210.1855 Q1599.9844,1211.4199 1600.875,1212.248 Q1601.7656,1213.0605 1603.3594,1213.0605 Q1604.2969,1213.0605 1604.9531,1212.8105 Q1605.3438,1212.6543 1605.7656,1212.2168 Q1606.0313,1211.9512 1606.1719,1211.873 Q1606.3281,1211.7949 1606.5313,1211.7949 Q1606.8594,1211.7949 1607.1094,1212.0605 Q1607.375,1212.3105 1607.375,1212.6543 Q1607.375,1212.998 1607.0313,1213.4043 Q1606.5313,1213.9824 1605.7344,1214.3105 Q1604.6563,1214.7637 1603.3594,1214.7637 Q1601.8438,1214.7637 1600.6406,1214.1387 Q1599.6563,1213.6387 1598.9688,1212.5762 Q1598.2813,1211.498 1598.2813,1210.2168 L1598.2813,1209.0605 Q1598.2813,1207.7324 1598.8906,1206.5918 Q1599.5156,1205.4355 1600.6094,1204.8262 Q1601.7031,1204.2012 1602.9375,1204.2012 Q1603.6719,1204.2012 1604.3125,1204.373 Q1604.9688,1204.5293 1605.5156,1204.8887 Z " fill="#000000"/><text fill="#000000" font-family="sans-serif" font-size="14" lengthAdjust="spacing" textLength="216" x="1623.25" y="1214.8105">ObjectMappingTemplateController</text><line style="stroke:#181818;stroke-width:0.5;" x1="1245" x2="2185" y1="1225.0137" y2="1225.0137"/><rect fill="none" height="6" style="stroke:#C82930;stroke-width:1.0;" width="6" x="1252" y="1236.8242"/><text fill="#000000" font-family="sans-serif" font-size="14" lengthAdjust="spacing" textLength="513" x="1264" y="1244.1211">static ObjectMappingTemplateService OBJECT_MAPPING_TEMPLATE_SERVICE</text><rect fill="none" height="6" style="stroke:#C82930;stroke-width:1.0;" width="6" x="1252" y="1255.4453"/><text fill="#000000" font-family="sans-serif" font-size="14" lengthAdjust="spacing" textLength="541" x="1264" y="1262.7422">static ObjectMappingTemplatesSelector OBJECT_MAPPING_TEMPLATE_SELECTOR</text><line style="stroke:#181818;stroke-width:0.5;" x1="1245" x2="2185" y1="1270.2559" y2="1270.2559"/><ellipse cx="1255" cy="1285.0664" fill="#84BE84" rx="3" ry="3" style="stroke:#038048;stroke-width:1.0;"/><text fill="#000000" font-family="sans-serif" font-size="14" lengthAdjust="spacing" text-decoration="underline" textLength="916" x="1264" y="1289.3633">List&lt;ObjectMappingTemplate&gt; getMappingTemplatesByObjectApiNames(List&lt;String&gt; sourceObjectApiNames,List&lt;String&gt; targetObjectApiNames)</text><ellipse cx="1255" cy="1303.6875" fill="#84BE84" rx="3" ry="3" style="stroke:#038048;stroke-width:1.0;"/><text fill="#000000" font-family="sans-serif" font-size="14" lengthAdjust="spacing" text-decoration="underline" textLength="467" x="1264" y="1307.9844">ObjectMappingTemplate getMappingTemplateById(Id mappingTemplateId)</text><ellipse cx="1255" cy="1322.3086" fill="#84BE84" rx="3" ry="3" style="stroke:#038048;stroke-width:1.0;"/><text fill="#000000" font-family="sans-serif" font-size="14" lengthAdjust="spacing" text-decoration="underline" textLength="520" x="1264" y="1326.6055">UpsertTemplateResponse upsertMappingTemplate(String mappingTemplateJSON)</text><ellipse cx="1255" cy="1340.9297" fill="#84BE84" rx="3" ry="3" style="stroke:#038048;stroke-width:1.0;"/><text fill="#000000" font-family="sans-serif" font-size="14" lengthAdjust="spacing" text-decoration="underline" textLength="342" x="1264" y="1345.2266">String deleteMappingTemplate(Id mappingTemplateId)</text></g><!--class ObjectMappingTemplateConverter--><g id="elem_ObjectMappingTemplateConverter"><rect codeLine="29" fill="#F1F1F1" height="85.2422" id="ObjectMappingTemplateConverter" rx="2.5" ry="2.5" style="stroke:#181818;stroke-width:0.5;" width="753" x="3009.5" y="1230.5137"/><ellipse cx="3273.25" cy="1246.5137" fill="#B4A7E5" rx="11" ry="11" style="stroke:#181818;stroke-width:1.0;"/><path d="M3274.2031,1243.1543 L3274.2031,1249.8105 L3275.9219,1249.8105 Q3276.5313,1249.8105 3276.7969,1250.0449 Q3277.0625,1250.2793 3277.0625,1250.6699 Q3277.0625,1251.0449 3276.7969,1251.2793 Q3276.5313,1251.5137 3275.9219,1251.5137 L3270.7813,1251.5137 Q3270.1719,1251.5137 3269.9063,1251.2793 Q3269.6406,1251.0449 3269.6406,1250.6543 Q3269.6406,1250.2793 3269.9063,1250.0449 Q3270.1719,1249.8105 3270.7813,1249.8105 L3272.5,1249.8105 L3272.5,1243.1543 L3270.7813,1243.1543 Q3270.1719,1243.1543 3269.9063,1242.9199 Q3269.6406,1242.6855 3269.6406,1242.2949 Q3269.6406,1241.9199 3269.9063,1241.6855 Q3270.1719,1241.4512 3270.7813,1241.4512 L3275.9219,1241.4512 Q3276.5313,1241.4512 3276.7969,1241.6855 Q3277.0625,1241.9199 3277.0625,1242.2949 Q3277.0625,1242.6855 3276.7969,1242.9199 Q3276.5313,1243.1543 3275.9219,1243.1543 L3274.2031,1243.1543 Z " fill="#000000"/><text fill="#000000" font-family="sans-serif" font-size="14" font-style="italic" lengthAdjust="spacing" textLength="217" x="3293.75" y="1252.3105">ObjectMappingTemplateConverter</text><line style="stroke:#181818;stroke-width:0.5;" x1="3010.5" x2="3761.5" y1="1262.5137" y2="1262.5137"/><line style="stroke:#181818;stroke-width:0.5;" x1="3010.5" x2="3761.5" y1="1270.5137" y2="1270.5137"/><ellipse cx="3020.5" cy="1285.3242" fill="#84BE84" rx="3" ry="3" style="stroke:#038048;stroke-width:1.0;"/><text fill="#000000" font-family="sans-serif" font-size="14" lengthAdjust="spacing" textLength="699" x="3029.5" y="1289.6211">Map&lt;Id, SObject&gt; convertRecords(List&lt;Id&gt; sourceRecordIds,ObjectMappingTemplate objectMappingTemplate)</text><ellipse cx="3020.5" cy="1303.9453" fill="#84BE84" rx="3" ry="3" style="stroke:#038048;stroke-width:1.0;"/><text fill="#000000" font-family="sans-serif" font-size="14" lengthAdjust="spacing" textLength="727" x="3029.5" y="1308.2422">Map&lt;Id, SObject&gt; convertRecords(List&lt;SObject&gt; sourceRecords,ObjectMappingTemplate objectMappingTemplate)</text></g><!--class ObjectMappingTemplateConverterImpl--><g id="elem_ObjectMappingTemplateConverterImpl"><rect codeLine="34" fill="#F1F1F1" height="178.3477" id="ObjectMappingTemplateConverterImpl" rx="2.5" ry="2.5" style="stroke:#181818;stroke-width:0.5;" width="753" x="2221.5" y="1184.0137"/><ellipse cx="2472.75" cy="1200.0137" fill="#ADD1B2" rx="11" ry="11" style="stroke:#181818;stroke-width:1.0;"/><path d="M2475.5156,1195.8887 Q2475.6719,1195.6699 2475.8594,1195.5605 Q2476.0469,1195.4512 2476.2656,1195.4512 Q2476.6406,1195.4512 2476.875,1195.7168 Q2477.1094,1195.9668 2477.1094,1196.5762 L2477.1094,1198.0293 Q2477.1094,1198.6387 2476.875,1198.9043 Q2476.6406,1199.1699 2476.2656,1199.1699 Q2475.9219,1199.1699 2475.7188,1198.9668 Q2475.5156,1198.7793 2475.4063,1198.2637 Q2475.3594,1197.9043 2475.1719,1197.7168 Q2474.8438,1197.3418 2474.2344,1197.123 Q2473.625,1196.9043 2473,1196.9043 Q2472.2344,1196.9043 2471.5938,1197.2324 Q2470.9688,1197.5605 2470.4688,1198.3105 Q2469.9844,1199.0605 2469.9844,1200.0918 L2469.9844,1201.1855 Q2469.9844,1202.4199 2470.875,1203.248 Q2471.7656,1204.0605 2473.3594,1204.0605 Q2474.2969,1204.0605 2474.9531,1203.8105 Q2475.3438,1203.6543 2475.7656,1203.2168 Q2476.0313,1202.9512 2476.1719,1202.873 Q2476.3281,1202.7949 2476.5313,1202.7949 Q2476.8594,1202.7949 2477.1094,1203.0605 Q2477.375,1203.3105 2477.375,1203.6543 Q2477.375,1203.998 2477.0313,1204.4043 Q2476.5313,1204.9824 2475.7344,1205.3105 Q2474.6563,1205.7637 2473.3594,1205.7637 Q2471.8438,1205.7637 2470.6406,1205.1387 Q2469.6563,1204.6387 2468.9688,1203.5762 Q2468.2813,1202.498 2468.2813,1201.2168 L2468.2813,1200.0605 Q2468.2813,1198.7324 2468.8906,1197.5918 Q2469.5156,1196.4355 2470.6094,1195.8262 Q2471.7031,1195.2012 2472.9375,1195.2012 Q2473.6719,1195.2012 2474.3125,1195.373 Q2474.9688,1195.5293 2475.5156,1195.8887 Z " fill="#000000"/><text fill="#000000" font-family="sans-serif" font-size="14" lengthAdjust="spacing" textLength="242" x="2493.25" y="1205.8105">ObjectMappingTemplateConverterImpl</text><line style="stroke:#181818;stroke-width:0.5;" x1="2222.5" x2="2973.5" y1="1216.0137" y2="1216.0137"/><line style="stroke:#181818;stroke-width:0.5;" x1="2222.5" x2="2973.5" y1="1224.0137" y2="1224.0137"/><ellipse cx="2232.5" cy="1238.8242" fill="#84BE84" rx="3" ry="3" style="stroke:#038048;stroke-width:1.0;"/><text fill="#000000" font-family="sans-serif" font-size="14" lengthAdjust="spacing" textLength="699" x="2241.5" y="1243.1211">Map&lt;Id, SObject&gt; convertRecords(List&lt;Id&gt; sourceRecordIds,ObjectMappingTemplate objectMappingTemplate)</text><ellipse cx="2232.5" cy="1257.4453" fill="#84BE84" rx="3" ry="3" style="stroke:#038048;stroke-width:1.0;"/><text fill="#000000" font-family="sans-serif" font-size="14" lengthAdjust="spacing" textLength="727" x="2241.5" y="1261.7422">Map&lt;Id, SObject&gt; convertRecords(List&lt;SObject&gt; sourceRecords,ObjectMappingTemplate objectMappingTemplate)</text><text fill="#000000" font-family="sans-serif" font-size="14" lengthAdjust="spacing" textLength="4" x="2241.5" y="1280.3633">&#160;</text><rect fill="#F24D5C" height="6" style="stroke:#C82930;stroke-width:1.0;" width="6" x="2229.5" y="1291.6875"/><text fill="#000000" font-family="sans-serif" font-size="14" lengthAdjust="spacing" textLength="391" x="2241.5" y="1298.9844">Object getFieldValueFromSObject(String field,SObject record)</text><rect fill="#F24D5C" height="6" style="stroke:#C82930;stroke-width:1.0;" width="6" x="2229.5" y="1310.3086"/><text fill="#000000" font-family="sans-serif" font-size="14" lengthAdjust="spacing" textLength="709" x="2241.5" y="1317.6055">List&lt;SObject&gt; querySourceRecords(List&lt;Id&gt; sourceRecordIds,ObjectMappingTemplate objectMappingTemplate)</text><rect fill="#F24D5C" height="6" style="stroke:#C82930;stroke-width:1.0;" width="6" x="2229.5" y="1328.9297"/><text fill="#000000" font-family="sans-serif" font-size="14" lengthAdjust="spacing" textLength="511" x="2241.5" y="1336.2266">void validateMappingTemplate(ObjectMappingTemplate objectMappingTemplate)</text><rect fill="#F24D5C" height="6" style="stroke:#C82930;stroke-width:1.0;" width="6" x="2229.5" y="1347.5508"/><text fill="#000000" font-family="sans-serif" font-size="14" lengthAdjust="spacing" textLength="343" x="2241.5" y="1354.8477">void validateFieldMapping(FieldMapping fieldMapping)</text></g><!--class ObjectMappingTemplate--><g id="elem_ObjectMappingTemplate"><rect codeLine="49" fill="#F1F1F1" height="234.2109" id="ObjectMappingTemplate" rx="2.5" ry="2.5" style="stroke:#181818;stroke-width:0.5;" width="744" x="465" y="1156.0137"/><ellipse cx="755.75" cy="1172.0137" fill="#ADD1B2" rx="11" ry="11" style="stroke:#181818;stroke-width:1.0;"/><path d="M758.5156,1167.8887 Q758.6719,1167.6699 758.8594,1167.5605 Q759.0469,1167.4512 759.2656,1167.4512 Q759.6406,1167.4512 759.875,1167.7168 Q760.1094,1167.9668 760.1094,1168.5762 L760.1094,1170.0293 Q760.1094,1170.6387 759.875,1170.9043 Q759.6406,1171.1699 759.2656,1171.1699 Q758.9219,1171.1699 758.7188,1170.9668 Q758.5156,1170.7793 758.4063,1170.2637 Q758.3594,1169.9043 758.1719,1169.7168 Q757.8438,1169.3418 757.2344,1169.123 Q756.625,1168.9043 756,1168.9043 Q755.2344,1168.9043 754.5938,1169.2324 Q753.9688,1169.5605 753.4688,1170.3105 Q752.9844,1171.0605 752.9844,1172.0918 L752.9844,1173.1855 Q752.9844,1174.4199 753.875,1175.248 Q754.7656,1176.0605 756.3594,1176.0605 Q757.2969,1176.0605 757.9531,1175.8105 Q758.3438,1175.6543 758.7656,1175.2168 Q759.0313,1174.9512 759.1719,1174.873 Q759.3281,1174.7949 759.5313,1174.7949 Q759.8594,1174.7949 760.1094,1175.0605 Q760.375,1175.3105 760.375,1175.6543 Q760.375,1175.998 760.0313,1176.4043 Q759.5313,1176.9824 758.7344,1177.3105 Q757.6563,1177.7637 756.3594,1177.7637 Q754.8438,1177.7637 753.6406,1177.1387 Q752.6563,1176.6387 751.9688,1175.5762 Q751.2813,1174.498 751.2813,1173.2168 L751.2813,1172.0605 Q751.2813,1170.7324 751.8906,1169.5918 Q752.5156,1168.4355 753.6094,1167.8262 Q754.7031,1167.2012 755.9375,1167.2012 Q756.6719,1167.2012 757.3125,1167.373 Q757.9688,1167.5293 758.5156,1167.8887 Z " fill="#000000"/><text fill="#000000" font-family="sans-serif" font-size="14" lengthAdjust="spacing" textLength="154" x="776.25" y="1177.8105">ObjectMappingTemplate</text><line style="stroke:#181818;stroke-width:0.5;" x1="466" x2="1208" y1="1188.0137" y2="1188.0137"/><text fill="#000000" font-family="sans-serif" font-size="14" lengthAdjust="spacing" textLength="26" x="471" y="1207.1211">Id id</text><text fill="#000000" font-family="sans-serif" font-size="14" lengthAdjust="spacing" textLength="181" x="471" y="1225.7422">String sourceObjectApiName</text><text fill="#000000" font-family="sans-serif" font-size="14" lengthAdjust="spacing" textLength="175" x="471" y="1244.3633">String targetObjectApiName</text><text fill="#000000" font-family="sans-serif" font-size="14" lengthAdjust="spacing" textLength="76" x="471" y="1262.9844">String name</text><text fill="#000000" font-family="sans-serif" font-size="14" lengthAdjust="spacing" textLength="110" x="471" y="1281.6055">String description</text><text fill="#000000" font-family="sans-serif" font-size="14" lengthAdjust="spacing" textLength="214" x="471" y="1300.2266">List&lt;FieldMapping&gt; fieldMappings</text><line style="stroke:#181818;stroke-width:0.5;" x1="466" x2="1208" y1="1307.7402" y2="1307.7402"/><ellipse cx="476" cy="1322.5508" fill="#84BE84" rx="3" ry="3" style="stroke:#038048;stroke-width:1.0;"/><text fill="#000000" font-family="sans-serif" font-size="14" lengthAdjust="spacing" textLength="289" x="485" y="1326.8477">List&lt;String&gt; getSourceObjectFieldApiNames()</text><ellipse cx="476" cy="1341.1719" fill="#84BE84" rx="3" ry="3" style="stroke:#038048;stroke-width:1.0;"/><text fill="#000000" font-family="sans-serif" font-size="14" lengthAdjust="spacing" text-decoration="underline" textLength="628" x="485" y="1345.4688">ObjectMappingTemplate ofSObject(Object_Mapping_Template__c objectMappingTemplateSObject)</text><ellipse cx="476" cy="1359.793" fill="#84BE84" rx="3" ry="3" style="stroke:#038048;stroke-width:1.0;"/><text fill="#000000" font-family="sans-serif" font-size="14" lengthAdjust="spacing" text-decoration="underline" textLength="718" x="485" y="1364.0898">List&lt;ObjectMappingTemplate&gt; ofSObjects(List&lt;Object_Mapping_Template__c&gt; objectMappingTemplateSObjects)</text><ellipse cx="476" cy="1378.4141" fill="#84BE84" rx="3" ry="3" style="stroke:#038048;stroke-width:1.0;"/><text fill="#000000" font-family="sans-serif" font-size="14" lengthAdjust="spacing" textLength="266" x="485" y="1382.7109">Object_Mapping_Template__c toSobject()</text></g><!--class FieldMapping--><g id="elem_FieldMapping"><rect codeLine="62" fill="#F1F1F1" height="122.4844" id="FieldMapping" rx="2.5" ry="2.5" style="stroke:#181818;stroke-width:0.5;" width="469" x="602.5" y="1450.0137"/><ellipse cx="790.25" cy="1466.0137" fill="#ADD1B2" rx="11" ry="11" style="stroke:#181818;stroke-width:1.0;"/><path d="M793.0156,1461.8887 Q793.1719,1461.6699 793.3594,1461.5605 Q793.5469,1461.4512 793.7656,1461.4512 Q794.1406,1461.4512 794.375,1461.7168 Q794.6094,1461.9668 794.6094,1462.5762 L794.6094,1464.0293 Q794.6094,1464.6387 794.375,1464.9043 Q794.1406,1465.1699 793.7656,1465.1699 Q793.4219,1465.1699 793.2188,1464.9668 Q793.0156,1464.7793 792.9063,1464.2637 Q792.8594,1463.9043 792.6719,1463.7168 Q792.3438,1463.3418 791.7344,1463.123 Q791.125,1462.9043 790.5,1462.9043 Q789.7344,1462.9043 789.0938,1463.2324 Q788.4688,1463.5605 787.9688,1464.3105 Q787.4844,1465.0605 787.4844,1466.0918 L787.4844,1467.1855 Q787.4844,1468.4199 788.375,1469.248 Q789.2656,1470.0605 790.8594,1470.0605 Q791.7969,1470.0605 792.4531,1469.8105 Q792.8438,1469.6543 793.2656,1469.2168 Q793.5313,1468.9512 793.6719,1468.873 Q793.8281,1468.7949 794.0313,1468.7949 Q794.3594,1468.7949 794.6094,1469.0605 Q794.875,1469.3105 794.875,1469.6543 Q794.875,1469.998 794.5313,1470.4043 Q794.0313,1470.9824 793.2344,1471.3105 Q792.1563,1471.7637 790.8594,1471.7637 Q789.3438,1471.7637 788.1406,1471.1387 Q787.1563,1470.6387 786.4688,1469.5762 Q785.7813,1468.498 785.7813,1467.2168 L785.7813,1466.0605 Q785.7813,1464.7324 786.3906,1463.5918 Q787.0156,1462.4355 788.1094,1461.8262 Q789.2031,1461.2012 790.4375,1461.2012 Q791.1719,1461.2012 791.8125,1461.373 Q792.4688,1461.5293 793.0156,1461.8887 Z " fill="#000000"/><text fill="#000000" font-family="sans-serif" font-size="14" lengthAdjust="spacing" textLength="85" x="810.75" y="1471.8105">FieldMapping</text><line style="stroke:#181818;stroke-width:0.5;" x1="603.5" x2="1070.5" y1="1482.0137" y2="1482.0137"/><text fill="#000000" font-family="sans-serif" font-size="14" lengthAdjust="spacing" textLength="52" x="608.5" y="1501.1211">String id</text><text fill="#000000" font-family="sans-serif" font-size="14" lengthAdjust="spacing" textLength="150" x="608.5" y="1519.7422">Field sourceObjectField</text><text fill="#000000" font-family="sans-serif" font-size="14" lengthAdjust="spacing" textLength="144" x="608.5" y="1538.3633">Field targetObjectField</text><line style="stroke:#181818;stroke-width:0.5;" x1="603.5" x2="1070.5" y1="1545.877" y2="1545.877"/><text fill="#000000" font-family="sans-serif" font-size="14" lengthAdjust="spacing" textLength="457" x="608.5" y="1564.9844">FieldMapping(String id, Field sourceObjectField, Field targetObjectField)</text></g><!--class Field--><g id="elem_Field"><rect codeLine="68" fill="#F1F1F1" height="178.3477" id="Field" rx="2.5" ry="2.5" style="stroke:#181818;stroke-width:0.5;" width="195" x="739.5" y="1632.0137"/><ellipse cx="817.25" cy="1648.0137" fill="#ADD1B2" rx="11" ry="11" style="stroke:#181818;stroke-width:1.0;"/><path d="M820.0156,1643.8887 Q820.1719,1643.6699 820.3594,1643.5605 Q820.5469,1643.4512 820.7656,1643.4512 Q821.1406,1643.4512 821.375,1643.7168 Q821.6094,1643.9668 821.6094,1644.5762 L821.6094,1646.0293 Q821.6094,1646.6387 821.375,1646.9043 Q821.1406,1647.1699 820.7656,1647.1699 Q820.4219,1647.1699 820.2188,1646.9668 Q820.0156,1646.7793 819.9063,1646.2637 Q819.8594,1645.9043 819.6719,1645.7168 Q819.3438,1645.3418 818.7344,1645.123 Q818.125,1644.9043 817.5,1644.9043 Q816.7344,1644.9043 816.0938,1645.2324 Q815.4688,1645.5605 814.9688,1646.3105 Q814.4844,1647.0605 814.4844,1648.0918 L814.4844,1649.1855 Q814.4844,1650.4199 815.375,1651.248 Q816.2656,1652.0605 817.8594,1652.0605 Q818.7969,1652.0605 819.4531,1651.8105 Q819.8438,1651.6543 820.2656,1651.2168 Q820.5313,1650.9512 820.6719,1650.873 Q820.8281,1650.7949 821.0313,1650.7949 Q821.3594,1650.7949 821.6094,1651.0605 Q821.875,1651.3105 821.875,1651.6543 Q821.875,1651.998 821.5313,1652.4043 Q821.0313,1652.9824 820.2344,1653.3105 Q819.1563,1653.7637 817.8594,1653.7637 Q816.3438,1653.7637 815.1406,1653.1387 Q814.1563,1652.6387 813.4688,1651.5762 Q812.7813,1650.498 812.7813,1649.2168 L812.7813,1648.0605 Q812.7813,1646.7324 813.3906,1645.5918 Q814.0156,1644.4355 815.1094,1643.8262 Q816.2031,1643.2012 817.4375,1643.2012 Q818.1719,1643.2012 818.8125,1643.373 Q819.4688,1643.5293 820.0156,1643.8887 Z " fill="#000000"/><text fill="#000000" font-family="sans-serif" font-size="14" lengthAdjust="spacing" textLength="31" x="837.75" y="1653.8105">Field</text><line style="stroke:#181818;stroke-width:0.5;" x1="740.5" x2="933.5" y1="1664.0137" y2="1664.0137"/><text fill="#000000" font-family="sans-serif" font-size="14" lengthAdjust="spacing" textLength="96" x="745.5" y="1683.1211">String apiName</text><text fill="#000000" font-family="sans-serif" font-size="14" lengthAdjust="spacing" textLength="107" x="745.5" y="1701.7422">String labelName</text><text fill="#000000" font-family="sans-serif" font-size="14" lengthAdjust="spacing" textLength="119" x="745.5" y="1720.3633">String referenceTo</text><text fill="#000000" font-family="sans-serif" font-size="14" lengthAdjust="spacing" textLength="109" x="745.5" y="1738.9844">Boolean required</text><text fill="#000000" font-family="sans-serif" font-size="14" lengthAdjust="spacing" textLength="68" x="745.5" y="1757.6055">String type</text><text fill="#000000" font-family="sans-serif" font-size="14" lengthAdjust="spacing" textLength="107" x="745.5" y="1776.2266">Field parentField</text><line style="stroke:#181818;stroke-width:0.5;" x1="740.5" x2="933.5" y1="1783.7402" y2="1783.7402"/><ellipse cx="750.5" cy="1798.5508" fill="#84BE84" rx="3" ry="3" style="stroke:#038048;stroke-width:1.0;"/><text fill="#000000" font-family="sans-serif" font-size="14" lengthAdjust="spacing" textLength="169" x="759.5" y="1802.8477">String toSOQLFieldName()</text></g><!--class ObjectMappingLayoutService--><g id="elem_ObjectMappingLayoutService"><rect codeLine="84" fill="#F1F1F1" height="103.8633" id="ObjectMappingLayoutService" rx="2.5" ry="2.5" style="stroke:#181818;stroke-width:0.5;" width="506" x="2908" y="510.5137"/><ellipse cx="3064.25" cy="526.5137" fill="#B4A7E5" rx="11" ry="11" style="stroke:#181818;stroke-width:1.0;"/><path d="M3065.2031,523.1543 L3065.2031,529.8105 L3066.9219,529.8105 Q3067.5313,529.8105 3067.7969,530.0449 Q3068.0625,530.2793 3068.0625,530.6699 Q3068.0625,531.0449 3067.7969,531.2793 Q3067.5313,531.5137 3066.9219,531.5137 L3061.7813,531.5137 Q3061.1719,531.5137 3060.9063,531.2793 Q3060.6406,531.0449 3060.6406,530.6543 Q3060.6406,530.2793 3060.9063,530.0449 Q3061.1719,529.8105 3061.7813,529.8105 L3063.5,529.8105 L3063.5,523.1543 L3061.7813,523.1543 Q3061.1719,523.1543 3060.9063,522.9199 Q3060.6406,522.6855 3060.6406,522.2949 Q3060.6406,521.9199 3060.9063,521.6855 Q3061.1719,521.4512 3061.7813,521.4512 L3066.9219,521.4512 Q3067.5313,521.4512 3067.7969,521.6855 Q3068.0625,521.9199 3068.0625,522.2949 Q3068.0625,522.6855 3067.7969,522.9199 Q3067.5313,523.1543 3066.9219,523.1543 L3065.2031,523.1543 Z " fill="#000000"/><text fill="#000000" font-family="sans-serif" font-size="14" font-style="italic" lengthAdjust="spacing" textLength="185" x="3084.75" y="532.3105">ObjectMappingLayoutService</text><line style="stroke:#181818;stroke-width:0.5;" x1="2909" x2="3413" y1="542.5137" y2="542.5137"/><line style="stroke:#181818;stroke-width:0.5;" x1="2909" x2="3413" y1="550.5137" y2="550.5137"/><ellipse cx="2919" cy="565.3242" fill="#84BE84" rx="3" ry="3" style="stroke:#038048;stroke-width:1.0;"/><text fill="#000000" font-family="sans-serif" font-size="14" lengthAdjust="spacing" textLength="480" x="2928" y="569.6211">Id upsertObjectMappingLayout(ObjectMappingLayout objectMappingLayout)</text><ellipse cx="2919" cy="583.9453" fill="#84BE84" rx="3" ry="3" style="stroke:#038048;stroke-width:1.0;"/><text fill="#000000" font-family="sans-serif" font-size="14" lengthAdjust="spacing" textLength="378" x="2928" y="588.2422">void deleteObjectMappingLayout(Id objectMappingLayoutId)</text><ellipse cx="2919" cy="602.5664" fill="#84BE84" rx="3" ry="3" style="stroke:#038048;stroke-width:1.0;"/><text fill="#000000" font-family="sans-serif" font-size="14" lengthAdjust="spacing" textLength="415" x="2928" y="606.8633">void markDefaultObjectMappingLayout(Id objectMappingLayoutId)</text></g><!--class ObjectMappingLayoutServiceImpl--><g id="elem_ObjectMappingLayoutServiceImpl"><rect codeLine="89" fill="#F1F1F1" height="196.9688" id="ObjectMappingLayoutServiceImpl" rx="2.5" ry="2.5" style="stroke:#181818;stroke-width:0.5;" width="650" x="2761" y="151.5137"/><ellipse cx="2976.75" cy="167.5137" fill="#ADD1B2" rx="11" ry="11" style="stroke:#181818;stroke-width:1.0;"/><path d="M2979.5156,163.3887 Q2979.6719,163.1699 2979.8594,163.0605 Q2980.0469,162.9512 2980.2656,162.9512 Q2980.6406,162.9512 2980.875,163.2168 Q2981.1094,163.4668 2981.1094,164.0762 L2981.1094,165.5293 Q2981.1094,166.1387 2980.875,166.4043 Q2980.6406,166.6699 2980.2656,166.6699 Q2979.9219,166.6699 2979.7188,166.4668 Q2979.5156,166.2793 2979.4063,165.7637 Q2979.3594,165.4043 2979.1719,165.2168 Q2978.8438,164.8418 2978.2344,164.623 Q2977.625,164.4043 2977,164.4043 Q2976.2344,164.4043 2975.5938,164.7324 Q2974.9688,165.0605 2974.4688,165.8105 Q2973.9844,166.5605 2973.9844,167.5918 L2973.9844,168.6855 Q2973.9844,169.9199 2974.875,170.748 Q2975.7656,171.5605 2977.3594,171.5605 Q2978.2969,171.5605 2978.9531,171.3105 Q2979.3438,171.1543 2979.7656,170.7168 Q2980.0313,170.4512 2980.1719,170.373 Q2980.3281,170.2949 2980.5313,170.2949 Q2980.8594,170.2949 2981.1094,170.5605 Q2981.375,170.8105 2981.375,171.1543 Q2981.375,171.498 2981.0313,171.9043 Q2980.5313,172.4824 2979.7344,172.8105 Q2978.6563,173.2637 2977.3594,173.2637 Q2975.8438,173.2637 2974.6406,172.6387 Q2973.6563,172.1387 2972.9688,171.0762 Q2972.2813,169.998 2972.2813,168.7168 L2972.2813,167.5605 Q2972.2813,166.2324 2972.8906,165.0918 Q2973.5156,163.9355 2974.6094,163.3262 Q2975.7031,162.7012 2976.9375,162.7012 Q2977.6719,162.7012 2978.3125,162.873 Q2978.9688,163.0293 2979.5156,163.3887 Z " fill="#000000"/><text fill="#000000" font-family="sans-serif" font-size="14" lengthAdjust="spacing" textLength="210" x="2997.25" y="173.3105">ObjectMappingLayoutServiceImpl</text><line style="stroke:#181818;stroke-width:0.5;" x1="2762" x2="3410" y1="183.5137" y2="183.5137"/><line style="stroke:#181818;stroke-width:0.5;" x1="2762" x2="3410" y1="191.5137" y2="191.5137"/><ellipse cx="2772" cy="206.3242" fill="#84BE84" rx="3" ry="3" style="stroke:#038048;stroke-width:1.0;"/><text fill="#000000" font-family="sans-serif" font-size="14" lengthAdjust="spacing" textLength="480" x="2781" y="210.6211">Id upsertObjectMappingLayout(ObjectMappingLayout objectMappingLayout)</text><rect fill="#F24D5C" height="6" style="stroke:#C82930;stroke-width:1.0;" width="6" x="2769" y="221.9453"/><text fill="#000000" font-family="sans-serif" font-size="14" lengthAdjust="spacing" textLength="565" x="2781" y="229.2422">List&lt;Object_Mapping__c&gt; removeUnlinkedObjectMappings(List&lt;Id&gt; oldObjectMappingIds,</text><text fill="#000000" font-family="sans-serif" font-size="14" lengthAdjust="spacing" textLength="350" x="2781" y="247.8633">List&lt;Object_Mapping__c&gt; newObjectMappingSObjects)</text><rect fill="#F24D5C" height="6" style="stroke:#C82930;stroke-width:1.0;" width="6" x="2769" y="259.1875"/><text fill="#000000" font-family="sans-serif" font-size="14" lengthAdjust="spacing" textLength="319" x="2781" y="266.4844">List&lt;Id&gt; getObjectMappingIds(Id mappingLayoutId)</text><rect fill="#F24D5C" height="6" style="stroke:#C82930;stroke-width:1.0;" width="6" x="2769" y="277.8086"/><text fill="#000000" font-family="sans-serif" font-size="14" lengthAdjust="spacing" textLength="624" x="2781" y="285.1055">List&lt;Object_Mapping__c&gt; upsertObjectMappings(List&lt;ObjectMapping&gt; objectMappings,Id layoutId)</text><text fill="#000000" font-family="sans-serif" font-size="14" lengthAdjust="spacing" textLength="4" x="2781" y="303.7266">&#160;</text><ellipse cx="2772" cy="318.0508" fill="#84BE84" rx="3" ry="3" style="stroke:#038048;stroke-width:1.0;"/><text fill="#000000" font-family="sans-serif" font-size="14" lengthAdjust="spacing" textLength="378" x="2781" y="322.3477">void deleteObjectMappingLayout(Id objectMappingLayoutId)</text><ellipse cx="2772" cy="336.6719" fill="#84BE84" rx="3" ry="3" style="stroke:#038048;stroke-width:1.0;"/><text fill="#000000" font-family="sans-serif" font-size="14" lengthAdjust="spacing" textLength="415" x="2781" y="340.9688">void markDefaultObjectMappingLayout(Id objectMappingLayoutId)</text></g><!--class ObjectMappingLayoutsSelector--><g id="elem_ObjectMappingLayoutsSelector"><rect codeLine="99" fill="#F1F1F1" height="103.8633" id="ObjectMappingLayoutsSelector" rx="2.5" ry="2.5" style="stroke:#181818;stroke-width:0.5;" width="842" x="2031" y="510.5137"/><ellipse cx="2349.25" cy="526.5137" fill="#ADD1B2" rx="11" ry="11" style="stroke:#181818;stroke-width:1.0;"/><path d="M2352.0156,522.3887 Q2352.1719,522.1699 2352.3594,522.0605 Q2352.5469,521.9512 2352.7656,521.9512 Q2353.1406,521.9512 2353.375,522.2168 Q2353.6094,522.4668 2353.6094,523.0762 L2353.6094,524.5293 Q2353.6094,525.1387 2353.375,525.4043 Q2353.1406,525.6699 2352.7656,525.6699 Q2352.4219,525.6699 2352.2188,525.4668 Q2352.0156,525.2793 2351.9063,524.7637 Q2351.8594,524.4043 2351.6719,524.2168 Q2351.3438,523.8418 2350.7344,523.623 Q2350.125,523.4043 2349.5,523.4043 Q2348.7344,523.4043 2348.0938,523.7324 Q2347.4688,524.0605 2346.9688,524.8105 Q2346.4844,525.5605 2346.4844,526.5918 L2346.4844,527.6855 Q2346.4844,528.9199 2347.375,529.748 Q2348.2656,530.5605 2349.8594,530.5605 Q2350.7969,530.5605 2351.4531,530.3105 Q2351.8438,530.1543 2352.2656,529.7168 Q2352.5313,529.4512 2352.6719,529.373 Q2352.8281,529.2949 2353.0313,529.2949 Q2353.3594,529.2949 2353.6094,529.5605 Q2353.875,529.8105 2353.875,530.1543 Q2353.875,530.498 2353.5313,530.9043 Q2353.0313,531.4824 2352.2344,531.8105 Q2351.1563,532.2637 2349.8594,532.2637 Q2348.3438,532.2637 2347.1406,531.6387 Q2346.1563,531.1387 2345.4688,530.0762 Q2344.7813,528.998 2344.7813,527.7168 L2344.7813,526.5605 Q2344.7813,525.2324 2345.3906,524.0918 Q2346.0156,522.9355 2347.1094,522.3262 Q2348.2031,521.7012 2349.4375,521.7012 Q2350.1719,521.7012 2350.8125,521.873 Q2351.4688,522.0293 2352.0156,522.3887 Z " fill="#000000"/><text fill="#000000" font-family="sans-serif" font-size="14" lengthAdjust="spacing" textLength="197" x="2369.75" y="532.3105">ObjectMappingLayoutsSelector</text><line style="stroke:#181818;stroke-width:0.5;" x1="2032" x2="2872" y1="542.5137" y2="542.5137"/><line style="stroke:#181818;stroke-width:0.5;" x1="2032" x2="2872" y1="550.5137" y2="550.5137"/><ellipse cx="2042" cy="565.3242" fill="#84BE84" rx="3" ry="3" style="stroke:#038048;stroke-width:1.0;"/><text fill="#000000" font-family="sans-serif" font-size="14" lengthAdjust="spacing" textLength="816" x="2051" y="569.6211">ObjectMappingLayout getObjectMappingLayoutWithObjectMappings(Id objectMappingLayoutId,Boolean isFieldMappingsIncluded)</text><ellipse cx="2042" cy="583.9453" fill="#84BE84" rx="3" ry="3" style="stroke:#038048;stroke-width:1.0;"/><text fill="#000000" font-family="sans-serif" font-size="14" lengthAdjust="spacing" textLength="355" x="2051" y="588.2422">List&lt;ObjectMappingLayout&gt; getObjectMappingLayouts()</text><ellipse cx="2042" cy="602.5664" fill="#84BE84" rx="3" ry="3" style="stroke:#038048;stroke-width:1.0;"/><text fill="#000000" font-family="sans-serif" font-size="14" lengthAdjust="spacing" textLength="680" x="2051" y="606.8633">List&lt;ObjectMappingLayout&gt; getObjectMappingLayoutsByParentSourceObject(String sourceObjectApiName)</text></g><!--class ObjectMappingLayoutConverterService--><g id="elem_ObjectMappingLayoutConverterService"><rect codeLine="152" fill="#F1F1F1" height="85.2422" id="ObjectMappingLayoutConverterService" rx="2.5" ry="2.5" style="stroke:#181818;stroke-width:0.5;" width="957" x="46.5" y="520.0137"/><ellipse cx="397.25" cy="536.0137" fill="#B4A7E5" rx="11" ry="11" style="stroke:#181818;stroke-width:1.0;"/><path d="M398.2031,532.6543 L398.2031,539.3105 L399.9219,539.3105 Q400.5313,539.3105 400.7969,539.5449 Q401.0625,539.7793 401.0625,540.1699 Q401.0625,540.5449 400.7969,540.7793 Q400.5313,541.0137 399.9219,541.0137 L394.7813,541.0137 Q394.1719,541.0137 393.9063,540.7793 Q393.6406,540.5449 393.6406,540.1543 Q393.6406,539.7793 393.9063,539.5449 Q394.1719,539.3105 394.7813,539.3105 L396.5,539.3105 L396.5,532.6543 L394.7813,532.6543 Q394.1719,532.6543 393.9063,532.4199 Q393.6406,532.1855 393.6406,531.7949 Q393.6406,531.4199 393.9063,531.1855 Q394.1719,530.9512 394.7813,530.9512 L399.9219,530.9512 Q400.5313,530.9512 400.7969,531.1855 Q401.0625,531.4199 401.0625,531.7949 Q401.0625,532.1855 400.7969,532.4199 Q400.5313,532.6543 399.9219,532.6543 L398.2031,532.6543 Z " fill="#000000"/><text fill="#000000" font-family="sans-serif" font-size="14" font-style="italic" lengthAdjust="spacing" textLength="247" x="417.75" y="541.8105">ObjectMappingLayoutConverterService</text><line style="stroke:#181818;stroke-width:0.5;" x1="47.5" x2="1002.5" y1="552.0137" y2="552.0137"/><line style="stroke:#181818;stroke-width:0.5;" x1="47.5" x2="1002.5" y1="560.0137" y2="560.0137"/><ellipse cx="57.5" cy="574.8242" fill="#84BE84" rx="3" ry="3" style="stroke:#038048;stroke-width:1.0;"/><text fill="#000000" font-family="sans-serif" font-size="14" lengthAdjust="spacing" textLength="931" x="66.5" y="579.1211">ObjectConversionResult convertObject(Id sourceRecordId,Id objectMappingLayoutId, ObjectMappingLayoutsSelector objectMappingLayoutSelector)</text><ellipse cx="57.5" cy="593.4453" fill="#84BE84" rx="3" ry="3" style="stroke:#038048;stroke-width:1.0;"/><text fill="#000000" font-family="sans-serif" font-size="14" lengthAdjust="spacing" textLength="651" x="66.5" y="597.7422">ObjectConversionResult convertObject(Id sourceRecordId,ObjectMappingLayout objectMappingLayout)</text></g><!--class ObjectMappingLayoutConverterServiceImpl--><g id="elem_ObjectMappingLayoutConverterServiceImpl"><rect codeLine="156" fill="#F1F1F1" height="271.4531" id="ObjectMappingLayoutConverterServiceImpl" rx="2.5" ry="2.5" style="stroke:#181818;stroke-width:0.5;" width="957" x="1038.5" y="427.0137"/><ellipse cx="1376.25" cy="443.0137" fill="#ADD1B2" rx="11" ry="11" style="stroke:#181818;stroke-width:1.0;"/><path d="M1379.0156,438.8887 Q1379.1719,438.6699 1379.3594,438.5605 Q1379.5469,438.4512 1379.7656,438.4512 Q1380.1406,438.4512 1380.375,438.7168 Q1380.6094,438.9668 1380.6094,439.5762 L1380.6094,441.0293 Q1380.6094,441.6387 1380.375,441.9043 Q1380.1406,442.1699 1379.7656,442.1699 Q1379.4219,442.1699 1379.2188,441.9668 Q1379.0156,441.7793 1378.9063,441.2637 Q1378.8594,440.9043 1378.6719,440.7168 Q1378.3438,440.3418 1377.7344,440.123 Q1377.125,439.9043 1376.5,439.9043 Q1375.7344,439.9043 1375.0938,440.2324 Q1374.4688,440.5605 1373.9688,441.3105 Q1373.4844,442.0605 1373.4844,443.0918 L1373.4844,444.1855 Q1373.4844,445.4199 1374.375,446.248 Q1375.2656,447.0605 1376.8594,447.0605 Q1377.7969,447.0605 1378.4531,446.8105 Q1378.8438,446.6543 1379.2656,446.2168 Q1379.5313,445.9512 1379.6719,445.873 Q1379.8281,445.7949 1380.0313,445.7949 Q1380.3594,445.7949 1380.6094,446.0605 Q1380.875,446.3105 1380.875,446.6543 Q1380.875,446.998 1380.5313,447.4043 Q1380.0313,447.9824 1379.2344,448.3105 Q1378.1563,448.7637 1376.8594,448.7637 Q1375.3438,448.7637 1374.1406,448.1387 Q1373.1563,447.6387 1372.4688,446.5762 Q1371.7813,445.498 1371.7813,444.2168 L1371.7813,443.0605 Q1371.7813,441.7324 1372.3906,440.5918 Q1373.0156,439.4355 1374.1094,438.8262 Q1375.2031,438.2012 1376.4375,438.2012 Q1377.1719,438.2012 1377.8125,438.373 Q1378.4688,438.5293 1379.0156,438.8887 Z " fill="#000000"/><text fill="#000000" font-family="sans-serif" font-size="14" lengthAdjust="spacing" textLength="273" x="1396.75" y="448.8105">ObjectMappingLayoutConverterServiceImpl</text><line style="stroke:#181818;stroke-width:0.5;" x1="1039.5" x2="1994.5" y1="459.0137" y2="459.0137"/><rect fill="none" height="6" style="stroke:#C82930;stroke-width:1.0;" width="6" x="1046.5" y="470.8242"/><text fill="#000000" font-family="sans-serif" font-size="14" lengthAdjust="spacing" textLength="435" x="1058.5" y="478.1211">ObjectMappingTemplateConverter objectMappingTemplateConverter</text><line style="stroke:#181818;stroke-width:0.5;" x1="1039.5" x2="1994.5" y1="485.6348" y2="485.6348"/><ellipse cx="1049.5" cy="500.4453" fill="#84BE84" rx="3" ry="3" style="stroke:#038048;stroke-width:1.0;"/><text fill="#000000" font-family="sans-serif" font-size="14" lengthAdjust="spacing" textLength="718" x="1058.5" y="504.7422">ObjectMappingLayoutConverterServiceImpl(ObjectMappingTemplateConverter objectMappingTemplateConverter)</text><ellipse cx="1049.5" cy="519.0664" fill="#84BE84" rx="3" ry="3" style="stroke:#038048;stroke-width:1.0;"/><text fill="#000000" font-family="sans-serif" font-size="14" lengthAdjust="spacing" textLength="931" x="1058.5" y="523.3633">ObjectConversionResult convertObject(Id sourceRecordId,Id objectMappingLayoutId, ObjectMappingLayoutsSelector objectMappingLayoutSelector)</text><ellipse cx="1049.5" cy="537.6875" fill="#84BE84" rx="3" ry="3" style="stroke:#038048;stroke-width:1.0;"/><text fill="#000000" font-family="sans-serif" font-size="14" lengthAdjust="spacing" textLength="651" x="1058.5" y="541.9844">ObjectConversionResult convertObject(Id sourceRecordId,ObjectMappingLayout objectMappingLayout)</text><rect fill="#F24D5C" height="6" style="stroke:#C82930;stroke-width:1.0;" width="6" x="1046.5" y="553.3086"/><text fill="#000000" font-family="sans-serif" font-size="14" lengthAdjust="spacing" textLength="551" x="1058.5" y="560.6055">SObject convertParentRecord(Id parentRecordId,ObjectMapping parentObjectMapping)</text><rect fill="#F24D5C" height="6" style="stroke:#C82930;stroke-width:1.0;" width="6" x="1046.5" y="571.9297"/><text fill="#000000" font-family="sans-serif" font-size="14" lengthAdjust="spacing" textLength="562" x="1058.5" y="579.2266">List&lt;SObject&gt; convertRelatedRecords(Id sourceParentRecordId,Id targetParentRecordId,</text><text fill="#000000" font-family="sans-serif" font-size="14" lengthAdjust="spacing" textLength="273" x="1058.5" y="597.8477">List&lt;ObjectMapping&gt; childObjectMappings)</text><rect fill="#F24D5C" height="6" style="stroke:#C82930;stroke-width:1.0;" width="6" x="1046.5" y="609.1719"/><text fill="#000000" font-family="sans-serif" font-size="14" lengthAdjust="spacing" textLength="619" x="1058.5" y="616.4688">List&lt;RelatedObject&gt; convertToRelatedTargetRecords(List&lt;RelatedObject&gt; relatedSourceObjects)</text><rect fill="#F24D5C" height="6" style="stroke:#C82930;stroke-width:1.0;" width="6" x="1046.5" y="627.793"/><text fill="#000000" font-family="sans-serif" font-size="14" lengthAdjust="spacing" textLength="694" x="1058.5" y="635.0898">List&lt;RelatedObject&gt; getRelatedSourceRecords(Id parentRecordId,List&lt;ObjectMapping&gt; childObjectMappings)</text><rect fill="#F24D5C" height="6" style="stroke:#C82930;stroke-width:1.0;" width="6" x="1046.5" y="646.4141"/><text fill="#000000" font-family="sans-serif" font-size="14" lengthAdjust="spacing" textLength="625" x="1058.5" y="653.7109">List&lt;SObject&gt; queryRelatedSourceRecords(Id parentRecordId,ObjectMapping childObjectMapping)</text><rect fill="#F24D5C" height="6" style="stroke:#C82930;stroke-width:1.0;" width="6" x="1046.5" y="665.0352"/><text fill="#000000" font-family="sans-serif" font-size="14" lengthAdjust="spacing" textLength="504" x="1058.5" y="672.332">void validateObjectMappingLayout(ObjectMappingLayout objectMappingLayout)</text><rect fill="#F24D5C" height="6" style="stroke:#C82930;stroke-width:1.0;" width="6" x="1046.5" y="683.6563"/><text fill="#000000" font-family="sans-serif" font-size="14" lengthAdjust="spacing" textLength="407" x="1058.5" y="690.9531">void validateChildObjectMapping(ObjectMapping objectMapping)</text></g><!--class ObjectMappingLayoutController--><g id="elem_ObjectMappingLayoutController"><rect codeLine="172" fill="#F1F1F1" height="196.9688" id="ObjectMappingLayoutController" rx="2.5" ry="2.5" style="stroke:#181818;stroke-width:0.5;" width="614" x="2112" y="151.5137"/><ellipse cx="2314.75" cy="167.5137" fill="#ADD1B2" rx="11" ry="11" style="stroke:#181818;stroke-width:1.0;"/><path d="M2317.5156,163.3887 Q2317.6719,163.1699 2317.8594,163.0605 Q2318.0469,162.9512 2318.2656,162.9512 Q2318.6406,162.9512 2318.875,163.2168 Q2319.1094,163.4668 2319.1094,164.0762 L2319.1094,165.5293 Q2319.1094,166.1387 2318.875,166.4043 Q2318.6406,166.6699 2318.2656,166.6699 Q2317.9219,166.6699 2317.7188,166.4668 Q2317.5156,166.2793 2317.4063,165.7637 Q2317.3594,165.4043 2317.1719,165.2168 Q2316.8438,164.8418 2316.2344,164.623 Q2315.625,164.4043 2315,164.4043 Q2314.2344,164.4043 2313.5938,164.7324 Q2312.9688,165.0605 2312.4688,165.8105 Q2311.9844,166.5605 2311.9844,167.5918 L2311.9844,168.6855 Q2311.9844,169.9199 2312.875,170.748 Q2313.7656,171.5605 2315.3594,171.5605 Q2316.2969,171.5605 2316.9531,171.3105 Q2317.3438,171.1543 2317.7656,170.7168 Q2318.0313,170.4512 2318.1719,170.373 Q2318.3281,170.2949 2318.5313,170.2949 Q2318.8594,170.2949 2319.1094,170.5605 Q2319.375,170.8105 2319.375,171.1543 Q2319.375,171.498 2319.0313,171.9043 Q2318.5313,172.4824 2317.7344,172.8105 Q2316.6563,173.2637 2315.3594,173.2637 Q2313.8438,173.2637 2312.6406,172.6387 Q2311.6563,172.1387 2310.9688,171.0762 Q2310.2813,169.998 2310.2813,168.7168 L2310.2813,167.5605 Q2310.2813,166.2324 2310.8906,165.0918 Q2311.5156,163.9355 2312.6094,163.3262 Q2313.7031,162.7012 2314.9375,162.7012 Q2315.6719,162.7012 2316.3125,162.873 Q2316.9688,163.0293 2317.5156,163.3887 Z " fill="#000000"/><text fill="#000000" font-family="sans-serif" font-size="14" lengthAdjust="spacing" textLength="200" x="2335.25" y="173.3105">ObjectMappingLayoutController</text><line style="stroke:#181818;stroke-width:0.5;" x1="2113" x2="2725" y1="183.5137" y2="183.5137"/><rect fill="none" height="6" style="stroke:#C82930;stroke-width:1.0;" width="6" x="2120" y="195.3242"/><text fill="#000000" font-family="sans-serif" font-size="14" lengthAdjust="spacing" text-decoration="underline" textLength="442" x="2132" y="202.6211">ObjectMappingLayoutService OBJECT_MAPPING_LAYOUT_SERVICE</text><rect fill="none" height="6" style="stroke:#C82930;stroke-width:1.0;" width="6" x="2120" y="213.9453"/><text fill="#000000" font-family="sans-serif" font-size="14" lengthAdjust="spacing" text-decoration="underline" textLength="470" x="2132" y="221.2422">ObjectMappingLayoutsSelector OBJECT_MAPPING_LAYOUT_SELECTOR</text><line style="stroke:#181818;stroke-width:0.5;" x1="2113" x2="2725" y1="228.7559" y2="228.7559"/><ellipse cx="2123" cy="243.5664" fill="#84BE84" rx="3" ry="3" style="stroke:#038048;stroke-width:1.0;"/><text fill="#000000" font-family="sans-serif" font-size="14" lengthAdjust="spacing" text-decoration="underline" textLength="314" x="2132" y="247.8633">List&lt;ObjectMappingLayout&gt; getMappingLayouts()</text><ellipse cx="2123" cy="262.1875" fill="#84BE84" rx="3" ry="3" style="stroke:#038048;stroke-width:1.0;"/><text fill="#000000" font-family="sans-serif" font-size="14" lengthAdjust="spacing" text-decoration="underline" textLength="336" x="2132" y="266.4844">ObjectMappingLayout getMappingLayout(Id recordId)</text><ellipse cx="2123" cy="280.8086" fill="#84BE84" rx="3" ry="3" style="stroke:#038048;stroke-width:1.0;"/><text fill="#000000" font-family="sans-serif" font-size="14" lengthAdjust="spacing" text-decoration="underline" textLength="510" x="2132" y="285.1055">UpsertLayoutResponse upsertMappingLayout(String objectMappingLayoutJSON)</text><ellipse cx="2123" cy="299.4297" fill="#84BE84" rx="3" ry="3" style="stroke:#038048;stroke-width:1.0;"/><text fill="#000000" font-family="sans-serif" font-size="14" lengthAdjust="spacing" text-decoration="underline" textLength="251" x="2132" y="303.7266">String deleteMappingLayout(Id layoutId)</text><ellipse cx="2123" cy="318.0508" fill="#84BE84" rx="3" ry="3" style="stroke:#038048;stroke-width:1.0;"/><text fill="#000000" font-family="sans-serif" font-size="14" lengthAdjust="spacing" text-decoration="underline" textLength="588" x="2132" y="322.3477">List&lt;ObjectMappingLayout&gt; getObjectMappingLayoutsBySourceRecordId(Id sourceRecordId)</text><ellipse cx="2123" cy="336.6719" fill="#84BE84" rx="3" ry="3" style="stroke:#038048;stroke-width:1.0;"/><text fill="#000000" font-family="sans-serif" font-size="14" lengthAdjust="spacing" text-decoration="underline" textLength="331" x="2132" y="340.9688">String markDefaultLayout(Id objectMappingLayoutId)</text></g><!--class ObjectMappingConverterController--><g id="elem_ObjectMappingConverterController"><rect codeLine="184" fill="#F1F1F1" height="122.4844" id="ObjectMappingConverterController" rx="2.5" ry="2.5" style="stroke:#181818;stroke-width:0.5;" width="625" x="831.5" y="189.0137"/><ellipse cx="1029.75" cy="205.0137" fill="#ADD1B2" rx="11" ry="11" style="stroke:#181818;stroke-width:1.0;"/><path d="M1032.5156,200.8887 Q1032.6719,200.6699 1032.8594,200.5605 Q1033.0469,200.4512 1033.2656,200.4512 Q1033.6406,200.4512 1033.875,200.7168 Q1034.1094,200.9668 1034.1094,201.5762 L1034.1094,203.0293 Q1034.1094,203.6387 1033.875,203.9043 Q1033.6406,204.1699 1033.2656,204.1699 Q1032.9219,204.1699 1032.7188,203.9668 Q1032.5156,203.7793 1032.4063,203.2637 Q1032.3594,202.9043 1032.1719,202.7168 Q1031.8438,202.3418 1031.2344,202.123 Q1030.625,201.9043 1030,201.9043 Q1029.2344,201.9043 1028.5938,202.2324 Q1027.9688,202.5605 1027.4688,203.3105 Q1026.9844,204.0605 1026.9844,205.0918 L1026.9844,206.1855 Q1026.9844,207.4199 1027.875,208.248 Q1028.7656,209.0605 1030.3594,209.0605 Q1031.2969,209.0605 1031.9531,208.8105 Q1032.3438,208.6543 1032.7656,208.2168 Q1033.0313,207.9512 1033.1719,207.873 Q1033.3281,207.7949 1033.5313,207.7949 Q1033.8594,207.7949 1034.1094,208.0605 Q1034.375,208.3105 1034.375,208.6543 Q1034.375,208.998 1034.0313,209.4043 Q1033.5313,209.9824 1032.7344,210.3105 Q1031.6563,210.7637 1030.3594,210.7637 Q1028.8438,210.7637 1027.6406,210.1387 Q1026.6563,209.6387 1025.9688,208.5762 Q1025.2813,207.498 1025.2813,206.2168 L1025.2813,205.0605 Q1025.2813,203.7324 1025.8906,202.5918 Q1026.5156,201.4355 1027.6094,200.8262 Q1028.7031,200.2012 1029.9375,200.2012 Q1030.6719,200.2012 1031.3125,200.373 Q1031.9688,200.5293 1032.5156,200.8887 Z " fill="#000000"/><text fill="#000000" font-family="sans-serif" font-size="14" lengthAdjust="spacing" textLength="220" x="1050.25" y="210.8105">ObjectMappingConverterController</text><line style="stroke:#181818;stroke-width:0.5;" x1="832.5" x2="1455.5" y1="221.0137" y2="221.0137"/><rect fill="none" height="6" style="stroke:#C82930;stroke-width:1.0;" width="6" x="839.5" y="232.8242"/><text fill="#000000" font-family="sans-serif" font-size="14" lengthAdjust="spacing" text-decoration="underline" textLength="519" x="851.5" y="240.1211">ObjectMappingTemplateConverter OBJECT_MAPPING_TEMPLATE_CONVERTER</text><rect fill="none" height="6" style="stroke:#C82930;stroke-width:1.0;" width="6" x="839.5" y="251.4453"/><text fill="#000000" font-family="sans-serif" font-size="14" lengthAdjust="spacing" text-decoration="underline" textLength="442" x="851.5" y="258.7422">ObjectMappingLayoutService OBJECT_MAPPING_LAYOUT_SERVICE</text><rect fill="none" height="6" style="stroke:#C82930;stroke-width:1.0;" width="6" x="839.5" y="270.0664"/><text fill="#000000" font-family="sans-serif" font-size="14" lengthAdjust="spacing" text-decoration="underline" textLength="599" x="851.5" y="277.3633">ObjectMappingLayoutConverterService OBJECT_MAPPING_LAYOUT_CONVERTER_SERVICE</text><line style="stroke:#181818;stroke-width:0.5;" x1="832.5" x2="1455.5" y1="284.877" y2="284.877"/><ellipse cx="842.5" cy="299.6875" fill="#84BE84" rx="3" ry="3" style="stroke:#038048;stroke-width:1.0;"/><text fill="#000000" font-family="sans-serif" font-size="14" lengthAdjust="spacing" text-decoration="underline" textLength="499" x="851.5" y="303.9844">String convertObjectFromLayout(Id sourceRecordId, Id objectMappingLayoutId)</text></g><!--class ObjectMappingLayout--><g id="elem_ObjectMappingLayout"><rect codeLine="107" fill="#F1F1F1" height="234.2109" id="ObjectMappingLayout" rx="2.5" ry="2.5" style="stroke:#181818;stroke-width:0.5;" width="881" x="3446.5" y="133.0137"/><ellipse cx="3813.75" cy="149.0137" fill="#ADD1B2" rx="11" ry="11" style="stroke:#181818;stroke-width:1.0;"/><path d="M3816.5156,144.8887 Q3816.6719,144.6699 3816.8594,144.5605 Q3817.0469,144.4512 3817.2656,144.4512 Q3817.6406,144.4512 3817.875,144.7168 Q3818.1094,144.9668 3818.1094,145.5762 L3818.1094,147.0293 Q3818.1094,147.6387 3817.875,147.9043 Q3817.6406,148.1699 3817.2656,148.1699 Q3816.9219,148.1699 3816.7188,147.9668 Q3816.5156,147.7793 3816.4063,147.2637 Q3816.3594,146.9043 3816.1719,146.7168 Q3815.8438,146.3418 3815.2344,146.123 Q3814.625,145.9043 3814,145.9043 Q3813.2344,145.9043 3812.5938,146.2324 Q3811.9688,146.5605 3811.4688,147.3105 Q3810.9844,148.0605 3810.9844,149.0918 L3810.9844,150.1855 Q3810.9844,151.4199 3811.875,152.248 Q3812.7656,153.0605 3814.3594,153.0605 Q3815.2969,153.0605 3815.9531,152.8105 Q3816.3438,152.6543 3816.7656,152.2168 Q3817.0313,151.9512 3817.1719,151.873 Q3817.3281,151.7949 3817.5313,151.7949 Q3817.8594,151.7949 3818.1094,152.0605 Q3818.375,152.3105 3818.375,152.6543 Q3818.375,152.998 3818.0313,153.4043 Q3817.5313,153.9824 3816.7344,154.3105 Q3815.6563,154.7637 3814.3594,154.7637 Q3812.8438,154.7637 3811.6406,154.1387 Q3810.6563,153.6387 3809.9688,152.5762 Q3809.2813,151.498 3809.2813,150.2168 L3809.2813,149.0605 Q3809.2813,147.7324 3809.8906,146.5918 Q3810.5156,145.4355 3811.6094,144.8262 Q3812.7031,144.2012 3813.9375,144.2012 Q3814.6719,144.2012 3815.3125,144.373 Q3815.9688,144.5293 3816.5156,144.8887 Z " fill="#000000"/><text fill="#000000" font-family="sans-serif" font-size="14" lengthAdjust="spacing" textLength="138" x="3834.25" y="154.8105">ObjectMappingLayout</text><line style="stroke:#181818;stroke-width:0.5;" x1="3447.5" x2="4326.5" y1="165.0137" y2="165.0137"/><text fill="#000000" font-family="sans-serif" font-size="14" lengthAdjust="spacing" textLength="26" x="3452.5" y="184.1211">Id id</text><text fill="#000000" font-family="sans-serif" font-size="14" lengthAdjust="spacing" textLength="76" x="3452.5" y="202.7422">String name</text><text fill="#000000" font-family="sans-serif" font-size="14" lengthAdjust="spacing" textLength="110" x="3452.5" y="221.3633">String description</text><text fill="#000000" font-family="sans-serif" font-size="14" lengthAdjust="spacing" textLength="111" x="3452.5" y="239.9844">Boolean isDefault</text><text fill="#000000" font-family="sans-serif" font-size="14" lengthAdjust="spacing" textLength="194" x="3452.5" y="258.6055">ObjectMapping parentMapping</text><text fill="#000000" font-family="sans-serif" font-size="14" lengthAdjust="spacing" textLength="227" x="3452.5" y="277.2266">List&lt;ObjectMapping&gt; childMappings</text><line style="stroke:#181818;stroke-width:0.5;" x1="3447.5" x2="4326.5" y1="284.7402" y2="284.7402"/><ellipse cx="3457.5" cy="299.5508" fill="#84BE84" rx="3" ry="3" style="stroke:#038048;stroke-width:1.0;"/><text fill="#000000" font-family="sans-serif" font-size="14" lengthAdjust="spacing" textLength="253" x="3466.5" y="303.8477">Object_Mapping_Layout__c toSObject()</text><ellipse cx="3457.5" cy="318.1719" fill="#84BE84" rx="3" ry="3" style="stroke:#038048;stroke-width:1.0;"/><text fill="#000000" font-family="sans-serif" font-size="14" lengthAdjust="spacing" text-decoration="underline" textLength="580" x="3466.5" y="322.4688">ObjectMappingLayout ofSObject(Object_Mapping_Layout__c objectMappingLayoutSObject)</text><ellipse cx="3457.5" cy="336.793" fill="#84BE84" rx="3" ry="3" style="stroke:#038048;stroke-width:1.0;"/><text fill="#000000" font-family="sans-serif" font-size="14" lengthAdjust="spacing" text-decoration="underline" textLength="855" x="3466.5" y="341.0898">ObjectMappingLayout ofSObject(Object_Mapping_Layout__c objectMappingLayoutSObject, List&lt;Object_Mapping__c&gt; objectMappings)</text><ellipse cx="3457.5" cy="355.4141" fill="#84BE84" rx="3" ry="3" style="stroke:#038048;stroke-width:1.0;"/><text fill="#000000" font-family="sans-serif" font-size="14" lengthAdjust="spacing" text-decoration="underline" textLength="670" x="3466.5" y="359.7109">List&lt;ObjectMappingLayout&gt; ofSObjects(List&lt;Object_Mapping_Layout__c&gt; objectMappingLayoutSObjects)</text></g><!--class ObjectMapping--><g id="elem_ObjectMapping"><rect codeLine="119" fill="#F1F1F1" height="215.5898" id="ObjectMapping" rx="2.5" ry="2.5" style="stroke:#181818;stroke-width:0.5;" width="559" x="3607.5" y="454.5137"/><ellipse cx="3835.25" cy="470.5137" fill="#ADD1B2" rx="11" ry="11" style="stroke:#181818;stroke-width:1.0;"/><path d="M3838.0156,466.3887 Q3838.1719,466.1699 3838.3594,466.0605 Q3838.5469,465.9512 3838.7656,465.9512 Q3839.1406,465.9512 3839.375,466.2168 Q3839.6094,466.4668 3839.6094,467.0762 L3839.6094,468.5293 Q3839.6094,469.1387 3839.375,469.4043 Q3839.1406,469.6699 3838.7656,469.6699 Q3838.4219,469.6699 3838.2188,469.4668 Q3838.0156,469.2793 3837.9063,468.7637 Q3837.8594,468.4043 3837.6719,468.2168 Q3837.3438,467.8418 3836.7344,467.623 Q3836.125,467.4043 3835.5,467.4043 Q3834.7344,467.4043 3834.0938,467.7324 Q3833.4688,468.0605 3832.9688,468.8105 Q3832.4844,469.5605 3832.4844,470.5918 L3832.4844,471.6855 Q3832.4844,472.9199 3833.375,473.748 Q3834.2656,474.5605 3835.8594,474.5605 Q3836.7969,474.5605 3837.4531,474.3105 Q3837.8438,474.1543 3838.2656,473.7168 Q3838.5313,473.4512 3838.6719,473.373 Q3838.8281,473.2949 3839.0313,473.2949 Q3839.3594,473.2949 3839.6094,473.5605 Q3839.875,473.8105 3839.875,474.1543 Q3839.875,474.498 3839.5313,474.9043 Q3839.0313,475.4824 3838.2344,475.8105 Q3837.1563,476.2637 3835.8594,476.2637 Q3834.3438,476.2637 3833.1406,475.6387 Q3832.1563,475.1387 3831.4688,474.0762 Q3830.7813,472.998 3830.7813,471.7168 L3830.7813,470.5605 Q3830.7813,469.2324 3831.3906,468.0918 Q3832.0156,466.9355 3833.1094,466.3262 Q3834.2031,465.7012 3835.4375,465.7012 Q3836.1719,465.7012 3836.8125,465.873 Q3837.4688,466.0293 3838.0156,466.3887 Z " fill="#000000"/><text fill="#000000" font-family="sans-serif" font-size="14" lengthAdjust="spacing" textLength="95" x="3855.75" y="476.3105">ObjectMapping</text><line style="stroke:#181818;stroke-width:0.5;" x1="3608.5" x2="4165.5" y1="486.5137" y2="486.5137"/><text fill="#000000" font-family="sans-serif" font-size="14" lengthAdjust="spacing" textLength="26" x="3613.5" y="505.6211">Id id</text><text fill="#000000" font-family="sans-serif" font-size="14" lengthAdjust="spacing" textLength="102" x="3613.5" y="524.2422">String externalId</text><text fill="#000000" font-family="sans-serif" font-size="14" lengthAdjust="spacing" textLength="129" x="3613.5" y="542.8633">FilterState filterState</text><text fill="#000000" font-family="sans-serif" font-size="14" lengthAdjust="spacing" textLength="212" x="3613.5" y="561.4844">ObjectMappingTemplate template</text><text fill="#000000" font-family="sans-serif" font-size="14" lengthAdjust="spacing" textLength="285" x="3613.5" y="580.1055">ObjectRelationship sourceObjectRelationship</text><text fill="#000000" font-family="sans-serif" font-size="14" lengthAdjust="spacing" textLength="279" x="3613.5" y="598.7266">ObjectRelationship targetObjectRelationship</text><line style="stroke:#181818;stroke-width:0.5;" x1="3608.5" x2="4165.5" y1="606.2402" y2="606.2402"/><ellipse cx="3618.5" cy="621.0508" fill="#84BE84" rx="3" ry="3" style="stroke:#038048;stroke-width:1.0;"/><text fill="#000000" font-family="sans-serif" font-size="14" lengthAdjust="spacing" textLength="266" x="3627.5" y="625.3477">Object_Mapping__c toSObject(Id layoutId)</text><ellipse cx="3618.5" cy="639.6719" fill="#84BE84" rx="3" ry="3" style="stroke:#038048;stroke-width:1.0;"/><text fill="#000000" font-family="sans-serif" font-size="14" lengthAdjust="spacing" text-decoration="underline" textLength="443" x="3627.5" y="643.9688">ObjectMapping ofSObject(Object_Mapping__c objectMappingSObject)</text><ellipse cx="3618.5" cy="658.293" fill="#84BE84" rx="3" ry="3" style="stroke:#038048;stroke-width:1.0;"/><text fill="#000000" font-family="sans-serif" font-size="14" lengthAdjust="spacing" text-decoration="underline" textLength="533" x="3627.5" y="662.5898">List&lt;ObjectMapping&gt; ofSObjects(List&lt;Object_Mapping__c&gt; objectMappingSObjects)</text></g><!--class FilterState--><g id="elem_FilterState"><rect codeLine="132" fill="#F1F1F1" height="178.3477" id="FilterState" rx="2.5" ry="2.5" style="stroke:#181818;stroke-width:0.5;" width="385" x="3446.5" y="758.0137"/><ellipse cx="3602.25" cy="774.0137" fill="#ADD1B2" rx="11" ry="11" style="stroke:#181818;stroke-width:1.0;"/><path d="M3605.0156,769.8887 Q3605.1719,769.6699 3605.3594,769.5605 Q3605.5469,769.4512 3605.7656,769.4512 Q3606.1406,769.4512 3606.375,769.7168 Q3606.6094,769.9668 3606.6094,770.5762 L3606.6094,772.0293 Q3606.6094,772.6387 3606.375,772.9043 Q3606.1406,773.1699 3605.7656,773.1699 Q3605.4219,773.1699 3605.2188,772.9668 Q3605.0156,772.7793 3604.9063,772.2637 Q3604.8594,771.9043 3604.6719,771.7168 Q3604.3438,771.3418 3603.7344,771.123 Q3603.125,770.9043 3602.5,770.9043 Q3601.7344,770.9043 3601.0938,771.2324 Q3600.4688,771.5605 3599.9688,772.3105 Q3599.4844,773.0605 3599.4844,774.0918 L3599.4844,775.1855 Q3599.4844,776.4199 3600.375,777.248 Q3601.2656,778.0605 3602.8594,778.0605 Q3603.7969,778.0605 3604.4531,777.8105 Q3604.8438,777.6543 3605.2656,777.2168 Q3605.5313,776.9512 3605.6719,776.873 Q3605.8281,776.7949 3606.0313,776.7949 Q3606.3594,776.7949 3606.6094,777.0605 Q3606.875,777.3105 3606.875,777.6543 Q3606.875,777.998 3606.5313,778.4043 Q3606.0313,778.9824 3605.2344,779.3105 Q3604.1563,779.7637 3602.8594,779.7637 Q3601.3438,779.7637 3600.1406,779.1387 Q3599.1563,778.6387 3598.4688,777.5762 Q3597.7813,776.498 3597.7813,775.2168 L3597.7813,774.0605 Q3597.7813,772.7324 3598.3906,771.5918 Q3599.0156,770.4355 3600.1094,769.8262 Q3601.2031,769.2012 3602.4375,769.2012 Q3603.1719,769.2012 3603.8125,769.373 Q3604.4688,769.5293 3605.0156,769.8887 Z " fill="#000000"/><text fill="#000000" font-family="sans-serif" font-size="14" lengthAdjust="spacing" textLength="65" x="3622.75" y="779.8105">FilterState</text><line style="stroke:#181818;stroke-width:0.5;" x1="3447.5" x2="3830.5" y1="790.0137" y2="790.0137"/><text fill="#000000" font-family="sans-serif" font-size="14" lengthAdjust="spacing" textLength="164" x="3452.5" y="809.1211">List&lt;ObjectFilter&gt; filterList</text><text fill="#000000" font-family="sans-serif" font-size="14" lengthAdjust="spacing" textLength="105" x="3452.5" y="827.7422">String filterString</text><text fill="#000000" font-family="sans-serif" font-size="14" lengthAdjust="spacing" textLength="141" x="3452.5" y="846.3633">String logicalCondition</text><text fill="#000000" font-family="sans-serif" font-size="14" lengthAdjust="spacing" textLength="118" x="3452.5" y="864.9844">String logicalOrder</text><text fill="#000000" font-family="sans-serif" font-size="14" lengthAdjust="spacing" textLength="168" x="3452.5" y="883.6055">String filterStringWithBinds</text><line style="stroke:#181818;stroke-width:0.5;" x1="3447.5" x2="3830.5" y1="891.1191" y2="891.1191"/><ellipse cx="3457.5" cy="905.9297" fill="#84BE84" rx="3" ry="3" style="stroke:#038048;stroke-width:1.0;"/><text fill="#000000" font-family="sans-serif" font-size="14" lengthAdjust="spacing" textLength="246" x="3466.5" y="910.2266">Map&lt;String,Object&gt; getBindVariables()</text><rect fill="#F24D5C" height="6" style="stroke:#C82930;stroke-width:1.0;" width="6" x="3454.5" y="921.5508"/><text fill="#000000" font-family="sans-serif" font-size="14" lengthAdjust="spacing" text-decoration="underline" textLength="359" x="3466.5" y="928.8477">Object typeCastValue(String fieldDataType, String value)</text></g><!--class ObjectRelationship--><g id="elem_ObjectRelationship"><rect codeLine="141" fill="#F1F1F1" height="103.8633" id="ObjectRelationship" rx="2.5" ry="2.5" style="stroke:#181818;stroke-width:0.5;" width="436" x="3867" y="795.0137"/><ellipse cx="4021.25" cy="811.0137" fill="#ADD1B2" rx="11" ry="11" style="stroke:#181818;stroke-width:1.0;"/><path d="M4024.0156,806.8887 Q4024.1719,806.6699 4024.3594,806.5605 Q4024.5469,806.4512 4024.7656,806.4512 Q4025.1406,806.4512 4025.375,806.7168 Q4025.6094,806.9668 4025.6094,807.5762 L4025.6094,809.0293 Q4025.6094,809.6387 4025.375,809.9043 Q4025.1406,810.1699 4024.7656,810.1699 Q4024.4219,810.1699 4024.2188,809.9668 Q4024.0156,809.7793 4023.9063,809.2637 Q4023.8594,808.9043 4023.6719,808.7168 Q4023.3438,808.3418 4022.7344,808.123 Q4022.125,807.9043 4021.5,807.9043 Q4020.7344,807.9043 4020.0938,808.2324 Q4019.4688,808.5605 4018.9688,809.3105 Q4018.4844,810.0605 4018.4844,811.0918 L4018.4844,812.1855 Q4018.4844,813.4199 4019.375,814.248 Q4020.2656,815.0605 4021.8594,815.0605 Q4022.7969,815.0605 4023.4531,814.8105 Q4023.8438,814.6543 4024.2656,814.2168 Q4024.5313,813.9512 4024.6719,813.873 Q4024.8281,813.7949 4025.0313,813.7949 Q4025.3594,813.7949 4025.6094,814.0605 Q4025.875,814.3105 4025.875,814.6543 Q4025.875,814.998 4025.5313,815.4043 Q4025.0313,815.9824 4024.2344,816.3105 Q4023.1563,816.7637 4021.8594,816.7637 Q4020.3438,816.7637 4019.1406,816.1387 Q4018.1563,815.6387 4017.4688,814.5762 Q4016.7813,813.498 4016.7813,812.2168 L4016.7813,811.0605 Q4016.7813,809.7324 4017.3906,808.5918 Q4018.0156,807.4355 4019.1094,806.8262 Q4020.2031,806.2012 4021.4375,806.2012 Q4022.1719,806.2012 4022.8125,806.373 Q4023.4688,806.5293 4024.0156,806.8887 Z " fill="#000000"/><text fill="#000000" font-family="sans-serif" font-size="14" lengthAdjust="spacing" textLength="119" x="4041.75" y="816.8105">ObjectRelationship</text><line style="stroke:#181818;stroke-width:0.5;" x1="3868" x2="4302" y1="827.0137" y2="827.0137"/><text fill="#000000" font-family="sans-serif" font-size="14" lengthAdjust="spacing" textLength="150" x="3873" y="846.1211">String relationshipName</text><text fill="#000000" font-family="sans-serif" font-size="14" lengthAdjust="spacing" textLength="123" x="3873" y="864.7422">String fieldApiName</text><line style="stroke:#181818;stroke-width:0.5;" x1="3868" x2="4302" y1="872.2559" y2="872.2559"/><ellipse cx="3878" cy="887.0664" fill="#84BE84" rx="3" ry="3" style="stroke:#038048;stroke-width:1.0;"/><text fill="#000000" font-family="sans-serif" font-size="14" lengthAdjust="spacing" textLength="410" x="3887" y="891.3633">ObjectRelationship(String relationshipName, String fieldApiName)</text></g><g id="elem_Object_Mapping_Template__c"><rect fill="#F1F1F1" height="123.7266" style="stroke:#181818;stroke-width:0.5;" width="295" x="3084.5" y="2186.0137"/><text fill="#000000" font-family="sans-serif" font-size="14" lengthAdjust="spacing" textLength="193" x="3135.5" y="2203.1211">Object_Mapping_Template__c</text><line style="stroke:#181818;stroke-width:0.5;" x1="3085.5" x2="3378.5" y1="2208.6348" y2="2208.6348"/><text fill="#000000" font-family="sans-serif" font-size="14" lengthAdjust="spacing" textLength="93" x="3090.5" y="2227.7422">Name Text(80)</text><text fill="#000000" font-family="sans-serif" font-size="14" lengthAdjust="spacing" textLength="193" x="3090.5" y="2246.3633">Description__c Text Area(255)</text><text fill="#000000" font-family="sans-serif" font-size="14" lengthAdjust="spacing" textLength="115" x="3090.5" y="2264.9844">Mapping_Data__c</text><text fill="#000000" font-family="sans-serif" font-size="14" lengthAdjust="spacing" textLength="155" x="3218.5" y="2264.9844">Long Text Area(131072)</text><text fill="#000000" font-family="sans-serif" font-size="14" lengthAdjust="spacing" textLength="254" x="3090.5" y="2283.6055">Source_Object_Api_Name__c Text(255)</text><text fill="#000000" font-family="sans-serif" font-size="14" lengthAdjust="spacing" textLength="251" x="3090.5" y="2302.2266">Target_Object_Api_Name__c Text(255)</text></g><g id="elem_Object_Mapping__c"><rect fill="#F1F1F1" height="142.3477" style="stroke:#181818;stroke-width:0.5;" width="492" x="3271" y="1975.0137"/><text fill="#000000" font-family="sans-serif" font-size="14" lengthAdjust="spacing" textLength="126" x="3454" y="1992.1211">Object_Mapping__c</text><line style="stroke:#181818;stroke-width:0.5;" x1="3272" x2="3762" y1="1997.6348" y2="1997.6348"/><text fill="#000000" font-family="sans-serif" font-size="14" lengthAdjust="spacing" textLength="240" x="3277" y="2016.7422">External_Id__c Text(255) (External ID)</text><text fill="#000000" font-family="sans-serif" font-size="14" lengthAdjust="spacing" textLength="298" x="3277" y="2035.3633">Filter_State_JSON__c Long Text Area(131072)</text><text fill="#000000" font-family="sans-serif" font-size="14" lengthAdjust="spacing" textLength="421" x="3277" y="2053.9844">Object_Mapping_Layout__c Master-Detail(Object Mapping Layout)</text><text fill="#000000" font-family="sans-serif" font-size="14" lengthAdjust="spacing" textLength="193" x="3277" y="2072.6055">Object_Mapping_Template__c</text><text fill="#000000" font-family="sans-serif" font-size="14" lengthAdjust="spacing" textLength="256" x="3501" y="2072.6055">Master-Detail(Object Mapping Template)</text><text fill="#000000" font-family="sans-serif" font-size="14" lengthAdjust="spacing" textLength="246" x="3277" y="2091.2266">Source_Object_Relationship_JSON__c</text><text fill="#000000" font-family="sans-serif" font-size="14" lengthAdjust="spacing" textLength="147" x="3533" y="2091.2266">Long Text Area(32768)</text><text fill="#000000" font-family="sans-serif" font-size="14" lengthAdjust="spacing" textLength="243" x="3277" y="2109.8477">Target_Object_Relationship_JSON__c</text><text fill="#000000" font-family="sans-serif" font-size="14" lengthAdjust="spacing" textLength="147" x="3533" y="2109.8477">Long Text Area(32768)</text></g><g id="elem_Object_Mapping_Layout__c"><rect fill="#F1F1F1" height="142.3477" style="stroke:#181818;stroke-width:0.5;" width="348" x="3415" y="2177.0137"/><text fill="#000000" font-family="sans-serif" font-size="14" lengthAdjust="spacing" textLength="177" x="3500.5" y="2194.1211">Object_Mapping_Layout__c</text><line style="stroke:#181818;stroke-width:0.5;" x1="3416" x2="3762" y1="2199.6348" y2="2199.6348"/><text fill="#000000" font-family="sans-serif" font-size="14" lengthAdjust="spacing" textLength="193" x="3421" y="2218.7422">Description__c Text Area(255)</text><text fill="#000000" font-family="sans-serif" font-size="14" lengthAdjust="spacing" textLength="144" x="3421" y="2237.3633">IsDefault__c Checkbox</text><text fill="#000000" font-family="sans-serif" font-size="14" lengthAdjust="spacing" textLength="93" x="3421" y="2255.9844">Name Text(80)</text><text fill="#000000" font-family="sans-serif" font-size="14" lengthAdjust="spacing" textLength="336" x="3421" y="2274.6055">Parent_Object_Mapping__c Lookup(Object Mapping)</text><text fill="#000000" font-family="sans-serif" font-size="14" lengthAdjust="spacing" textLength="336" x="3421" y="2293.2266">Parent_Source_Object_Api_Name__c Formula (Text)</text><text fill="#000000" font-family="sans-serif" font-size="14" lengthAdjust="spacing" textLength="333" x="3421" y="2311.8477">Parent_Target_Object_Api_Name__c Formula (Text)</text></g><!--link ObjectMappingTemplateConverterImpl to ObjectMappingTemplateConverter--><g id="link_ObjectMappingTemplateConverterImpl_ObjectMappingTemplateConverter"><path codeLine="43" d="M2974.69,1273.0137 C2979.45,1273.0137 2984.22,1273.0137 2988.99,1273.0137 " fill="none" id="ObjectMappingTemplateConverterImpl-to-ObjectMappingTemplateConverter" style="stroke:#181818;stroke-width:1.0;"/><polygon fill="none" points="2989.23,1266.0137,3009.23,1273.0137,2989.23,1280.0137,2989.23,1266.0137" style="stroke:#181818;stroke-width:1.0;"/></g><!--link ObjectMappingTemplateServiceImpl to ObjectMappingTemplateService--><g id="link_ObjectMappingTemplateServiceImpl_ObjectMappingTemplateService"><path codeLine="44" d="M3984.02,1315.5237 C3926.55,1340.2937 3850.15,1370.6037 3780,1390.0137 C3638.01,1429.2937 3476.5,1457.6437 3342.48,1476.8937 " fill="none" id="ObjectMappingTemplateServiceImpl-to-ObjectMappingTemplateService" style="stroke:#181818;stroke-width:1.0;"/><polygon fill="#181818" points="3337.32,1477.6337,3346.7996,1480.3053,3342.2686,1476.9186,3345.6554,1472.3876,3337.32,1477.6337" style="stroke:#181818;stroke-width:1.0;"/></g><!--link ObjectMappingTemplateController to ObjectMappingTemplateService--><g id="link_ObjectMappingTemplateController_ObjectMappingTemplateService"><path codeLine="45" d="M2028.75,1353.0237 C2086.81,1366.3437 2147.09,1379.2937 2204,1390.0137 C2394.2,1425.8237 2610.03,1456.0137 2777.38,1477.1537 " fill="none" id="ObjectMappingTemplateController-to-ObjectMappingTemplateService" style="stroke:#181818;stroke-width:1.0;"/><polygon fill="#181818" points="2782.81,1477.8337,2774.3847,1472.7333,2777.8497,1477.2047,2773.3783,1480.6698,2782.81,1477.8337" style="stroke:#181818;stroke-width:1.0;"/></g><!--link ObjectMappingTemplateController to ObjectMappingTemplatesSelector--><g id="link_ObjectMappingTemplateController_ObjectMappingTemplatesSelector"><path codeLine="46" d="M1715,1353.2537 C1715,1389.7137 1715,1431.7237 1715,1463.0637 " fill="none" id="ObjectMappingTemplateController-to-ObjectMappingTemplatesSelector" style="stroke:#181818;stroke-width:1.0;"/><polygon fill="#181818" points="1715,1468.4037,1719,1459.4037,1715,1463.4037,1711,1459.4037,1715,1468.4037" style="stroke:#181818;stroke-width:1.0;"/></g><!--link ObjectMappingTemplate to FieldMapping--><g id="link_ObjectMappingTemplate_FieldMapping"><path codeLine="77" d="M837,1390.2837 C837,1408.9437 837,1427.6737 837,1444.5837 " fill="none" id="ObjectMappingTemplate-to-FieldMapping" style="stroke:#181818;stroke-width:1.0;"/><polygon fill="#181818" points="837,1449.7637,841,1440.7637,837,1444.7637,833,1440.7637,837,1449.7637" style="stroke:#181818;stroke-width:1.0;"/></g><!--link FieldMapping to Field--><g id="link_FieldMapping_Field"><path codeLine="78" d="M837,1572.1737 C837,1589.1737 837,1608.0837 837,1626.5537 " fill="none" id="FieldMapping-to-Field" style="stroke:#181818;stroke-width:1.0;"/><polygon fill="#181818" points="837,1631.7437,841,1622.7437,837,1626.7437,833,1622.7437,837,1631.7437" style="stroke:#181818;stroke-width:1.0;"/></g><!--link ObjectMappingLayoutServiceImpl to ObjectMappingLayoutService--><g id="link_ObjectMappingLayoutServiceImpl_ObjectMappingLayoutService"><path codeLine="104" d="M3109.63,348.8337 C3120.73,394.8137 3133.73,448.6237 3143.87,490.6037 " fill="none" id="ObjectMappingLayoutServiceImpl-to-ObjectMappingLayoutService" style="stroke:#181818;stroke-width:1.0;"/><polygon fill="none" points="3150.71,489.1037,3148.6,510.1837,3137.1,492.3837,3150.71,489.1037" style="stroke:#181818;stroke-width:1.0;"/></g><!--link ObjectMappingLayout to ObjectMapping--><g id="link_ObjectMappingLayout_ObjectMapping"><path codeLine="147" d="M3887,367.0737 C3887,393.8837 3887,422.3537 3887,449.0037 " fill="none" id="ObjectMappingLayout-to-ObjectMapping" style="stroke:#181818;stroke-width:1.0;"/><polygon fill="#181818" points="3887,454.3137,3891,445.3137,3887,449.3137,3883,445.3137,3887,454.3137" style="stroke:#181818;stroke-width:1.0;"/></g><!--link ObjectMapping to FilterState--><g id="link_ObjectMapping_FilterState"><path codeLine="148" d="M3792.89,670.7137 C3768.86,698.0937 3743.23,727.2837 3719.93,753.8237 " fill="none" id="ObjectMapping-to-FilterState" style="stroke:#181818;stroke-width:1.0;"/><polygon fill="#181818" points="3716.51,757.7237,3725.4546,753.6013,3719.8096,753.967,3719.4439,748.322,3716.51,757.7237" style="stroke:#181818;stroke-width:1.0;"/></g><!--link ObjectMapping to ObjectRelationship--><g id="link_ObjectMapping_ObjectRelationship"><path codeLine="149" d="M3962.14,670.7137 C3990.84,711.6637 4022.38,756.6737 4046.32,790.8237 " fill="none" id="ObjectMapping-to-ObjectRelationship" style="stroke:#181818;stroke-width:1.0;"/><polygon fill="#181818" points="4049.2,794.9437,4047.3135,785.2772,4046.3317,790.8482,4040.7607,789.8664,4049.2,794.9437" style="stroke:#181818;stroke-width:1.0;"/></g><!--reverse link ObjectMappingLayoutConverterService to ObjectMappingLayoutConverterServiceImpl--><g id="link_ObjectMappingLayoutConverterService_ObjectMappingLayoutConverterServiceImpl"><path codeLine="190" d="M1023.71,562.5137 C1028.61,562.5137 1033.51,562.5137 1038.41,562.5137 " fill="none" id="ObjectMappingLayoutConverterService-backto-ObjectMappingLayoutConverterServiceImpl" style="stroke:#181818;stroke-width:1.0;"/><polygon fill="none" points="1023.56,569.5137,1003.56,562.5137,1023.56,555.5137,1023.56,569.5137" style="stroke:#181818;stroke-width:1.0;"/></g><!--link ObjectMappingLayoutController to ObjectMappingLayoutService--><g id="link_ObjectMappingLayoutController_ObjectMappingLayoutService"><path codeLine="192" d="M2695.49,348.5537 C2760.16,372.9037 2828.43,399.8537 2891,427.0137 C2947.89,451.7037 3009.92,482.3337 3060.17,508.1237 " fill="none" id="ObjectMappingLayoutController-to-ObjectMappingLayoutService" style="stroke:#181818;stroke-width:1.0;"/><polygon fill="#181818" points="3064.69,510.4537,3058.5069,502.7876,3060.2409,508.1721,3054.8564,509.9061,3064.69,510.4537" style="stroke:#181818;stroke-width:1.0;"/></g><!--link ObjectMappingLayoutController to ObjectMappingLayoutsSelector--><g id="link_ObjectMappingLayoutController_ObjectMappingLayoutsSelector"><path codeLine="193" d="M2429.4,348.8337 C2434.86,400.2437 2441.36,461.4437 2445.99,504.9637 " fill="none" id="ObjectMappingLayoutController-to-ObjectMappingLayoutsSelector" style="stroke:#181818;stroke-width:1.0;"/><polygon fill="#181818" points="2446.54,510.1837,2449.566,500.8112,2446.0114,505.2117,2441.6109,501.657,2446.54,510.1837" style="stroke:#181818;stroke-width:1.0;"/></g><!--link ObjectMappingConverterController to ObjectMappingLayoutConverterService--><g id="link_ObjectMappingConverterController_ObjectMappingLayoutConverterService"><path codeLine="194" d="M1024.28,311.0637 C903.6,371.6037 720.21,463.5937 612.51,517.6137 " fill="none" id="ObjectMappingConverterController-to-ObjectMappingLayoutConverterService" style="stroke:#181818;stroke-width:1.0;"/><polygon fill="#181818" points="607.76,520.0037,617.5981,519.5439,612.2293,517.7619,614.0113,512.3931,607.76,520.0037" style="stroke:#181818;stroke-width:1.0;"/></g><!--link ObjectMappingConverterController to ObjectMappingLayoutsSelector--><g id="link_ObjectMappingConverterController_ObjectMappingLayoutsSelector"><path codeLine="195" d="M1456.61,306.6937 C1622.76,338.2037 1829.95,380.5537 2013,427.0137 C2106.93,450.8537 2210.66,482.3837 2293.69,508.9237 " fill="none" id="ObjectMappingConverterController-to-ObjectMappingLayoutsSelector" style="stroke:#181818;stroke-width:1.0;"/><polygon fill="#181818" points="2298.63,510.5037,2291.2794,503.9486,2293.8684,508.9782,2288.8387,511.5672,2298.63,510.5037" style="stroke:#181818;stroke-width:1.0;"/></g><!--link Object_Mapping__c to Object_Mapping_Template__c--><g id="link_Object_Mapping__c_Object_Mapping_Template__c"><path codeLine="227" d="M3416.92,2117.2437 C3386.5,2138.5937 3353.24,2161.9337 3323.42,2182.8637 " fill="none" id="Object_Mapping__c-to-Object_Mapping_Template__c" style="stroke:#181818;stroke-width:1.0;"/><polygon fill="#181818" points="3319.05,2185.9337,3328.7165,2184.0472,3323.1455,2183.0654,3324.1273,2177.4944,3319.05,2185.9337" style="stroke:#181818;stroke-width:1.0;"/></g><!--link Object_Mapping__c to Object_Mapping_Layout__c--><g id="link_Object_Mapping__c_Object_Mapping_Layout__c"><path codeLine="228" d="M3530.05,2117.2437 C3535.79,2134.9437 3542.6,2154.0037 3549.58,2171.9237 " fill="none" id="Object_Mapping__c-to-Object_Mapping_Layout__c" style="stroke:#181818;stroke-width:1.0;"/><polygon fill="#181818" points="3551.55,2176.9537,3551.984,2167.1144,3549.7226,2172.2996,3544.5374,2170.0382,3551.55,2176.9537" style="stroke:#181818;stroke-width:1.0;"/></g><!--link Object_Mapping_Layout__c to Object_Mapping__c--><g id="link_Object_Mapping_Layout__c_Object_Mapping__c"><path codeLine="229" d="M3576.72,2176.9537 C3571.03,2159.2637 3564.23,2140.2037 3557.22,2122.2737 " fill="none" id="Object_Mapping_Layout__c-to-Object_Mapping__c" style="stroke:#181818;stroke-width:1.0;"/><polygon fill="#181818" points="3555.24,2117.2437,3554.806,2127.083,3557.0674,2121.8978,3562.2526,2124.1592,3555.24,2117.2437" style="stroke:#181818;stroke-width:1.0;"/></g><!--link FilterState to ObjectMappingTemplate--><!--link ObjectMappingTemplateService to Database--><!--SRC=[vLfRRzis57wEVeNG9nknWLxGjG-5WTXn1XTEdDbkXc4O34PY4Ysog4bosi3BVnyftc-ISkase07QnEIvyV3ZEOU7pa5q2wvXECQ_OHRlWvmDl5fS_WcZwXJaUP9Th-4sJq45Jr6yI-6hVH3YdoIhO7458XWwQLUmk4lm92KcFuVXB0vtUGcBoidHSuw6o3NQLwJUeIGEOvZ22hhbOhKL-tiMKyw7-lye1MNPQFuCV_hVBg5j3UKAIumgL6Whc2TbzSb9FmgleNjTPMy5gq-pUAHOKVRTGZUCTyEPDvkebcp9h9bMLO47Hs69TaN4Ld-K9sTW2yj1g95Ke106bfoc7tJqnWHbLO7I51RI6yEmh42LHCqGNem_JoVhpUdH-VdixEVDUdfwFZzQJpUhwV9YDfbsb2PtmozlZiSNoq1nx9wAV6ZRDbFP-5vtPGTdUtqjNUsmouruswBn_ImcCDxgmnpDXjGlzHdZH4jOvYWh8Jjwvk6WDfkIFwyMPqxPZ9mUDyT1yrY84TObxc6OtM4R5PGTXfW47vv1kA8Sep2YH4iOeI9cUqDE5zqNEenFsE0fuQIZEZ6fwdo2nau7Ztg41DCVm2k120UKZHo6amIcyGL8T_2aG5kcXGFtYamEs61Or3hxKefks5yxMDolLEjUrb53cepkG9h4m3uVBo2ozWMZxQaVg2FO1pLFjyCg7CP_Zrhe_ABKP3ySZXg96WrY2UOx2n6PX42DLsnAZGR5AMiubKfDW7zms4jYTO11qv4e75IEPE6Wojp3CIoZ8ich16NgR0rg5HqZ3HwbJ9Ay_E2f2vkoKiokPOWqs5VPMf8Okk87rL_PkA7F-DpAcZAvKCbETLD9rQIvr5Gtc5-X5PKZFFEWOKVT0HKnRFCqqDIq6cJg4Oj2XOkJWWS7eMJWaptmYHJhTon7MGVJ04pGil4KNCBKELF0ArZ0B89h9EV62AKGP7ZohrrImDZYgkvpHHGrFGTOZkM7Gy62LejVvlKqCQHdBSm3NX8zL6S63WTBee0cSYoJnnDDwXpSerr5ht_xnZA8KXgNFz-rYHBt76CwkEbOFsYvBJ5nM9U3MnIQZ7yBYjjZU0LsQVLu8TxhexPyezvvGHzefO5nkabeAE0MtS4lMPfajp3MP2lb0ahrAL8ogF9b77QeoE1NZTaHU8I5H9bvjSJAb6BRsAEszJdyg0LCaJ8q5vO3h30LcjG8-Jn8_Kkm4db_RmTt7Jcci-dmhqbrO_ZCPy-0XxAaL0D6ESkYT1T3VU6suwcOaSSE8mi_cdryVrx7J3NBz_m5YxUIj0uhZeTc5QdHKCZm22c2egotcdPFBxZiYijN9hNKIQ7SAOOxRLOpXEKQ8oEOnrmSdkWcKUejbTegAUWIMK6nq0kAvcgBnpfVhIKbEu1grrdVMTF06vBqIEEro0_sbj9FM3TgC4_HAye35oAxOX5-mqa-0-bCdpr9KZo-gaYTSIN_zWDFL2MyVUWWNK8yWS5TtYIvTepLYJO-jGxK-9hXg-5MIn9TWEM7b8cbDhmwKrWpBYn0I2X8BGzcV59tSEyB19HenBQOJBWmmW5Gc265rz3eEeb0YY-sSM85BvrcKSJicjwWWsInSPB5PaGY_HrACU2z4Wm5Gda1YWHSflhjhwulZFsiw_C9AAkwKwErPuv11TPuTi1DkYCagZp5nzgHq_2vD-ihSPsGHERrMVE3lCkQ98SEVJsF-85BeBwOm7EKMHIrcXC-UdR7S0K9cyvtu1ywt3b4duSbQ_NDWv9JYX9BNi8I9qhU0PJdNc-W3RpLKMDrvepFRAx_VACUTLDegIXDdsat5j70z3NKt1q8sMzhgL9TodlFqkXeUlo0UqwtZhUJcMXQCLE1H46kV3OLi4bjJ1MjDwH56vriHSnxqc8DvxgY6U_L6ED1Xr9quIcnc4NC0iEkDMBZwrgjrZCtE0hwKRrMb6OVtc2f9IfSol8D3pzsLSw-VqTT-cxQMdoT-PTeJ1WY9vRodb4xwOR9gDKKj7YBN8rLJKM_voLtVlJRuilQyOxR9ClxZYkacQ-utUf_-MJgl2KttcbCNeA9Wg71BOK-i59gz_CgayGA1SUMwm-iRI-iqh3KrJpfvY1tDs2b1KixV3OQgJHiEZTxU7NaWAZ8HOz2gPteVDyHc2pEBgRBzNJv7o3VJDWUeS94IxpjVItnaQTHkGT62WpRjeNLtnqBZN2uSxTwJEAWIQptgKvl6prTWdpgisMueEOHOotgMTAKzyUW_be4_eTZFRW4E8OSypyawkcsDRn2wRSYSXS9r_1RrVluMh-m7SiM6BbQ4vhmg82Wz_RzUvsIAo7MODA3ES9Wa_Hlthrv_U6jpaAZo8PPYUz46s88rsEheFL4D_g75b-OBfYolijc5ci2mnwV2MV7VKTFPbFViJOaD1F63ilsDi5EyJqO5iDZM864r-NShw7ZDQ9XVmyQPTbVYBEtGxqIyjMPc_hkxOUVFZRjqHE4j6sSS9VSluDkA3sOyNuj8PhSmEZs4dsJq-vJS43BvetTPveZTBlB3T_QZ7wKdw1Ykqj1s2DARKO_t3sCqdMsiJAmkE3oE4Qn1K4hf1tSc8s4BxKVDXp-VfF4CSp-YD7NpFijZA3nEuEs41uOWty0]--></g></svg>